<svg xmlns="http://www.w3.org/2000/svg" width="400" height="105.699" fill-rule="evenodd"><path d="M23.5 4.163c0 .209.138.358.375.406 1.617.326 1.958.267 1.958-.337 0-.383-.047-.399-1.166-.399-1.052 0-1.167.033-1.167.33m63.944-.219c-.209.21-.11.544.212.717.518.277 2.011-.1 2.011-.508 0-.324-1.927-.505-2.223-.209m-61.065.889c-.059.79 1.5.913 1.59.125.052-.444.028-.458-.756-.458-.689 0-.812.049-.834.333m58.985.125c.088.769 1.469.646 1.469-.131 0-.277-.115-.327-.761-.327-.732 0-.759.018-.708.458m-57.031.617c0 .391.7.754 1.459.757.114.001.208.078.208.172s.206.258.458.365a3.62 3.62 0 0 1 .738.428c.373.311.971.111.971-.324a.445.445 0 0 0-.318-.421.618.618 0 0 1-.401-.401c-.065-.247-.235-.318-.766-.318-.571 0-.682-.054-.682-.333 0-.289-.111-.333-.833-.333-.774 0-.834.029-.834.408M83.25 5.5c-.082.259-.252.333-.761.333-.545 0-.656.057-.656.334 0 .298-.173.411-.541.353-.069-.011-.125.159-.125.377 0 .493.612.704 1.007.347.148-.134.347-.244.442-.244s.357-.145.583-.323a2.81 2.81 0 0 1 .897-.44c.64-.153.904-.374.904-.757 0-.48-1.597-.461-1.75.02M32.53 7.708c.084.59.97.638.97.053 0-.366-.073-.428-.512-.428s-.503.056-.458.375m47.303.053c0 .585.887.537.97-.053.046-.319-.023-.375-.458-.375s-.512.062-.512.428m-46.159.614c.007.373.742.97 1.482 1.205.189.06.344.222.344.359 0 .419.741.206.803-.231.044-.305-.026-.375-.375-.375-.317 0-.428-.086-.428-.333a.29.29 0 0 0-.333-.333.29.29 0 0 1-.334-.334c0-.27-.111-.333-.583-.333-.496 0-.582.056-.576.375m44.708-.042c-.049.185-.228.334-.401.334-.203 0-.314.118-.314.333 0 .194-.111.333-.266.333-.146 0-.305.15-.353.334a.446.446 0 0 1-.412.333c-.243 0-.312.096-.273.375.064.446.804.648.804.22 0-.144.122-.262.272-.262s.443-.168.651-.375c.498-.493.771-.705 1.212-.941a.69.69 0 0 0 .365-.606c0-.555-1.142-.624-1.285-.078M5.863 15.936c.088.734.438.828 2.084.556 1.278-.21 1.47-.286 1.47-.575 0-.31-.127-.337-1.804-.381l-1.803-.048.053.448m12.791-.394c-.209.705-.154.767.778.884 1.026.128 1.332-.024 1.157-.576-.095-.297-1.855-.578-1.935-.308m74.091.308c-.169.531.132.706.992.577.666-.1.763-.166.763-.521 0-.575-1.575-.626-1.755-.056m11.212-.225c-.278.558.926 1.011 2.748 1.034.632.008 1.01-.51.718-.983-.125-.201-3.367-.248-3.466-.051M3.833 16.667c0 .467.041.499.625.497.66-.003.975-.138.962-.414-.039-.788-1.587-.87-1.587-.083m103.924-.345c-.259.419.245.845.999.845.705 0 .744-.025.744-.471 0-.494-1.473-.811-1.743-.374M43.833 18c0 .185.111.333.25.333s.25.148.25.328.15.408.334.506.333.285.333.416.15.319.333.417.336.27.338.381c.007.284.838 1.055 1.287 1.193.347.106.375.063.375-.563 0-.567-.054-.678-.333-.678a.29.29 0 0 1-.333-.333.29.29 0 0 0-.334-.333.29.29 0 0 1-.333-.334.29.29 0 0 0-.333-.333.29.29 0 0 1-.334-.333c0-.245-.111-.334-.416-.334S44.5 18.244 44.5 18a.29.29 0 0 0-.333-.333.29.29 0 0 0-.334.333m24.194.792c-.015.114-.177.208-.36.208a.29.29 0 0 0-.334.333.29.29 0 0 1-.333.334.29.29 0 0 0-.333.333.29.29 0 0 1-.334.333c-.27 0-.333.111-.333.584 0 .503.054.583.397.583.383 0 1.27-.918 1.27-1.314 0-.093.118-.236.262-.316.184-.103.242-.318.194-.717-.038-.313-.082-.476-.096-.361m-20.694 3.354a.78.78 0 0 0 .25.521.77.77 0 0 1 .25.52c0 .223.121.313.417.313.352 0 .417-.078.417-.5 0-.389-.074-.5-.334-.5a.29.29 0 0 1-.333-.333.29.29 0 0 0-.333-.334c-.215 0-.334.111-.334.313m18 .021A.29.29 0 0 1 65 22.5c-.259 0-.333.111-.333.5 0 .424.064.5.42.5.335 0 .442-.103.521-.5.055-.275.166-.5.246-.5s.146-.15.146-.333a.29.29 0 0 0-.333-.334.29.29 0 0 0-.334.334m-16.666 1.982c0 .173.112.359.25.411s.25.237.25.41c0 .422.939 1.697 1.251 1.697.143 0 .254.159.261.375.016.503.518 1.335.931 1.543.183.092.304.257.268.365-.111.333.281.883.628.883.263 0 .327-.114.327-.583s-.063-.583-.333-.583c-.278 0-.333-.111-.333-.667s-.056-.667-.334-.667A.29.29 0 0 1 51.5 27a.29.29 0 0 0-.333-.333c-.284 0-.334-.111-.334-.75 0-.624-.053-.75-.314-.75-.173 0-.352-.149-.401-.334a.445.445 0 0 0-.416-.333.445.445 0 0 1-.417-.333c-.111-.425-.618-.44-.618-.018M64 24.167c-.132.183-.374.333-.537.333-.185 0-.296.125-.296.333a.29.29 0 0 1-.334.334c-.284 0-.333.111-.333.75s-.049.75-.333.75a.29.29 0 0 0-.334.333.29.29 0 0 1-.333.333c-.278 0-.333.111-.333.667s-.056.667-.334.667c-.27 0-.333.111-.333.583 0 .504.054.583.399.583.406 0 .601-.274.601-.847 0-.175.111-.319.246-.319.267 0 .921-1.207.921-1.698 0-.182.121-.302.305-.302.168 0 .411-.207.542-.459s.33-.557.444-.678a.913.913 0 0 0 .209-.547c0-.18.112-.37.25-.423.304-.116.335-.727.036-.727-.117 0-.321.15-.453.334m58 4.246c0 .792 1.856.75 1.97-.044.05-.346-.009-.369-.958-.369-.966 0-1.012.019-1.012.413m9.197-.038c.117.826 1.803.768 1.803-.062 0-.269-.131-.313-.928-.313-.868 0-.925.025-.875.375m27.303-.139c0 .756.945 1.03 2.072.601.994-.377.543-.837-.822-.837-.968 0-1.25.053-1.25.236m10.333-.101c0 .601 1.412 1.117 1.916.7.625-.52.311-.835-.832-.835-.596 0-1.084.061-1.084.135m-49 .865c0 .278-.111.333-.666.333s-.667.056-.667.334-.111.333-.667.333c-.542 0-.666.059-.666.315 0 .197-.156.355-.416.42-.229.057-.407.159-.397.226.056.367-.057.539-.354.539a.29.29 0 0 0-.333.333.29.29 0 0 1-.334.334.29.29 0 0 0-.333.333.29.29 0 0 1-.333.333.29.29 0 0 0-.334.334.29.29 0 0 1-.333.333c-.278 0-.333.111-.333.667s-.056.666-.334.666c-.284 0-.333.111-.333.75s-.049.75-.333.75c-.308 0-.334.111-.334 1.417 0 1.836.501 2.109.84.458a9.52 9.52 0 0 1 .512-1.657c.173-.385.315-.782.315-.882s.3-.589.667-1.086l.666-.998c0-.116 1.519-1.585 1.945-1.881l.847-.558c.298-.19.542-.398.542-.462s.262-.212.583-.328c.366-.132.583-.32.583-.505 0-.228.106-.278.481-.223.616.091 1.186-.214 1.186-.634 0-.282-.116-.327-.833-.327-.723 0-.834.044-.834.333m13.834.066c0 .423.274.601.93.601.337 0 .403-.083.403-.5 0-.473-.037-.5-.667-.5-.592 0-.666.044-.666.399M156.5 29c0 .278-.111.333-.667.333s-.666.056-.666.334c0 .227-.111.333-.349.333a.444.444 0 0 0-.435.328.68.68 0 0 1-.401.428c-.173.055-.315.236-.315.402 0 .398.692.589.885.244.078-.14.304-.329.503-.42s.662-.348 1.028-.571c.708-.43.855-.502 1.709-.844.96-.384.745-.9-.375-.9-.806 0-.917.04-.917.333m15.167.004c0 .381.67.761 1.072.606.612-.234.307-.943-.406-.943-.558 0-.666.055-.666.337M185.5 52.5v23.833h.833V28.667h-.833V52.5m19.667-23.506c0 .554 1.51 1.024 2.164.674.898-.48.422-1.001-.914-1.001-1.132 0-1.25.031-1.25.327m17 23.506v23.833h1V28.667h-1V52.5m27.745-23.625c-.042.115-.096 1.896-.119 3.958l-.043 3.75-8.361.084c-8.669.086-8.657.085-8.476.654.109.344.146.346 9.182.346h9.072v-9h-.589c-.324 0-.623.093-.666.208m16.421.125a.29.29 0 0 1-.333.333c-.299 0-.333.111-.333 1.084s-.035 1.083-.334 1.083-.333.111-.333 1.25c0 1.667.651 1.911.998.375a17.54 17.54 0 0 1 .498-1.708c.824-2.284.867-2.75.254-2.75-.306 0-.417.089-.417.333m9.552.125c.049.252.238.946.42 1.542l.64 2.166c.49 1.72 1.055 1.681 1.055-.071 0-1.151-.029-1.262-.333-1.262-.299 0-.334-.111-.334-1.083s-.034-1.084-.333-1.084a.29.29 0 0 1-.333-.333c0-.248-.111-.333-.436-.333-.386 0-.425.052-.346.458M294 52.5v23.833h1.167V28.667H294V52.5m17.333-23.42c0 .316.109.437.459.514l.625.148c.41.117.916-.244.916-.653s-.041-.422-1-.422c-.953 0-1 .019-1 .413m48 3.4c0 2.953-.049 3.854-.219 3.995-.151.125-2.793.197-8.431.229l-8.447.37c-.291.398-.356 10.999-.068 11.177.79.488.832.217.832-5.346v-5.238h17.333v-9h-1v3.813M364.5 52.5l.333 23.833c.332 0 .334-.111.334-23.833l-.334-23.833c-.331 0-.333.111-.333 23.833m19.667-23.433c0 .341.12.429.823.597 1.092.262 1.51.121 1.51-.509v-.488h-1.167c-1.12 0-1.166.016-1.166.4m-249 .68c0 .313.111.44.458.523.252.061.593.25.756.42s.36.31.435.31c.207 0 2.601 2.362 2.83 2.792.109.206.339.375.511.375.231 0 .289.087.223.338-.049.187.025.468.163.625s.305.474.371.703a3.57 3.57 0 0 0 .33.75c.115.184.334.765.487 1.292.446 1.536.936 1.384.936-.292 0-1.139-.03-1.25-.334-1.25-.284 0-.333-.111-.333-.75s-.049-.75-.333-.75a.29.29 0 0 1-.334-.333.29.29 0 0 0-.333-.333c-.278 0-.333-.111-.333-.667 0-.6-.042-.667-.417-.667-.306 0-.417-.089-.417-.333a.29.29 0 0 0-.333-.333.29.29 0 0 1-.333-.334.29.29 0 0 0-.334-.333c-.244 0-.333-.111-.333-.417s-.089-.416-.333-.416a.29.29 0 0 1-.334-.334c0-.277-.111-.333-.666-.333s-.667-.056-.667-.333-.111-.334-.667-.334c-.598 0-.666.043-.666.414m38.197.045c.044.386.131.458.553.458s.508-.072.552-.458c.049-.426.01-.459-.552-.459s-.602.033-.553.459m34.58-.348c-.381.382.249 1.056.987 1.056.137 0 .471.15.742.333l.987.667c.271.183.562.333.646.333.517 0 2.835 2.832 3.513 4.292.53 1.142 1.014 1.002 1.014-.292 0-.889-.037-1-.333-1a.29.29 0 0 1-.333-.333.29.29 0 0 0-.334-.333c-.277 0-.333-.111-.333-.667s-.056-.667-.333-.667a.29.29 0 0 1-.334-.333.29.29 0 0 0-.333-.333.29.29 0 0 1-.333-.334c0-.284-.111-.333-.75-.333-.689 0-.75-.034-.75-.417 0-.305-.089-.416-.334-.416a.29.29 0 0 1-.333-.334c0-.277-.111-.333-.667-.333s-.666-.056-.666-.333c0-.336-1.425-.52-1.723-.223M314 29.755c0 .49.577.796 1.042.553.614-.322.363-.975-.375-.975-.603 0-.667.041-.667.422m72.864.037c.044.378.169.488.719.633.699.183 1.536.624 2.122 1.117.19.16.485.291.654.291s.308.083.308.185.356.535.791.965c.93.916 1.381 1.465 1.666 2.026.114.224.283.52.375.658s.241.456.33.708c.347.978 1.004.623 1.004-.542 0-.889-.037-1-.333-1a.29.29 0 0 1-.333-.333.29.29 0 0 0-.334-.333c-.277 0-.333-.111-.333-.667 0-.6-.042-.667-.417-.667-.305 0-.416-.089-.416-.333a.29.29 0 0 0-.334-.333.29.29 0 0 1-.333-.334c0-.277-.111-.333-.667-.333-.6 0-.666-.042-.666-.417 0-.305-.089-.416-.334-.416a.29.29 0 0 1-.333-.334c0-.277-.111-.333-.667-.333s-.666-.056-.666-.333c0-.294-.111-.334-.928-.334-.914 0-.927.007-.875.459m-334.031.349c0 .091-.045.284-.101.429-.077.2.007.263.345.263.367 0 .437-.066.393-.373-.052-.361-.637-.654-.637-.319m7 .181c0 .207-.134.341-.375.375-.311.044-.383.172-.426.761-.041.573-.113.709-.375.709s-.324.117-.324.583c0 .815.783.879.943.077.056-.278.234-.577.396-.663.395-.212 1.029-1.548.897-1.891-.15-.39-.736-.352-.736.049m114.778-.211c-.229.229-.099.704.219.805.182.057.638.4 1.014.761s.752.656.836.656.153.075.153.167.137.304.305.471.547.729.844 1.247.599.979.672 1.024.229.422.345.837c.354 1.264 1.001 1.105 1.001-.246 0-.889-.037-1-.333-1-.278 0-.334-.111-.334-.666s-.055-.667-.333-.667a.29.29 0 0 1-.333-.333c0-.245-.111-.334-.417-.334s-.417-.089-.417-.333a.29.29 0 0 0-.333-.333.29.29 0 0 1-.333-.334.29.29 0 0 0-.334-.333c-.244 0-.333-.111-.333-.417 0-.297-.09-.416-.314-.416a.45.45 0 0 1-.401-.334c-.086-.329-.91-.485-1.174-.222m141.167 0c-.323.323-.069.752.62 1.048.403.172.782.395.843.494s.248.18.415.18.64.319 1.053.709l1.403 1.314c.358.333.986 1.046 1.395 1.583s.799 1.003.868 1.033.125.152.125.269.139.393.308.612.382.622.472.897.307.575.483.667c.215.111.328.358.342.75a5.88 5.88 0 0 0 .272 1.333c.292.878.58 1.949.806 3 .457 2.121.321 17.306-.161 17.892-.086.105-.25.679-.364 1.275s-.261 1.158-.328 1.25-.178.354-.246.583a18.71 18.71 0 0 1-1.1 2.5c-.09.137-.251.456-.36.708s-.254.459-.323.459-.232.206-.363.458c-.267.516-2.317 2.638-3.196 3.309-.316.241-.575.535-.575.654 0 .133-.128.181-.339.126-.2-.053-.478.037-.68.219a2.83 2.83 0 0 1-.869.479c-.404.131-.542.282-.583.639-.075.653 1.681.644 1.774-.009.034-.241.168-.375.375-.375s.322-.115.322-.334c0-.277.111-.333.666-.333s.667-.056.667-.333a.29.29 0 0 1 .333-.334.29.29 0 0 0 .334-.333.29.29 0 0 1 .333-.333.29.29 0 0 0 .333-.334c0-.244.111-.333.417-.333s.417-.089.417-.333a.29.29 0 0 1 .333-.334.29.29 0 0 0 .333-.333.29.29 0 0 1 .334-.333c.284 0 .333-.111.333-.75s.049-.75.333-.75a.29.29 0 0 0 .334-.334A.29.29 0 0 1 324 68c.278 0 .333-.111.333-.667s.056-.666.334-.666c.299 0 .333-.111.333-1.084s.034-1.083.333-1.083c.306 0 .334-.111.334-1.333 0-1.313.006-1.334.418-1.334h.418l-.043-9.291-.043-9.292-.375-.053c-.355-.051-.375-.128-.375-1.459 0-1.294-.027-1.405-.334-1.405-.277 0-.333-.111-.333-.666s-.056-.667-.333-.667c-.297 0-.334-.111-.334-1s-.037-1-.333-1a.29.29 0 0 1-.333-.333.29.29 0 0 0-.334-.334c-.284 0-.333-.111-.333-.75s-.049-.75-.333-.75a.29.29 0 0 1-.334-.333.29.29 0 0 0-.333-.333.29.29 0 0 1-.333-.334c0-.244-.111-.333-.417-.333s-.417-.089-.417-.333a.29.29 0 0 0-.333-.334.29.29 0 0 1-.333-.333.29.29 0 0 0-.334-.333.29.29 0 0 1-.333-.334c0-.277-.111-.333-.667-.333-.565 0-.666-.053-.666-.349a.443.443 0 0 0-.334-.436.45.45 0 0 1-.333-.401c0-.318-1.438-.487-1.722-.203m-163.445 1.722a.29.29 0 0 1-.333.334c-.278 0-.333.111-.333.666s-.056.667-.334.667a.29.29 0 0 0-.333.333.29.29 0 0 1-.333.334c-.275 0-.334.111-.334.627 0 .49-.081.663-.375.791-.275.121-.388.331-.426.79-.041.49-.122.625-.375.625-.266 0-.324.118-.324.667 0 .555-.055.666-.333.666-.306 0-.333.111-.333 1.334 0 1.3.01 1.333.405 1.333.358 0 .427-.109.602-.958.108-.527.301-1.161.428-1.409s.231-.662.231-.921a1.11 1.11 0 0 1 .338-.761 1.62 1.62 0 0 0 .438-.787c.055-.273.166-.497.248-.497s.274-.263.427-.584.333-.583.4-.583.172-.225.233-.5.201-.5.313-.5c.344 0 1.647-1.48 1.542-1.752-.158-.413-1.439-.337-1.439.085M54 32.639c0 .593.075.666.587.568.673-.129.597-1.04-.087-1.04-.438 0-.5.058-.5.472m.833 1.278c0 .333.084.416.417.416s.417-.083.417-.416-.084-.417-.417-.417-.417.083-.417.417m2.834 0c0 .333.083.416.416.416s.417-.083.417-.416-.083-.417-.417-.417-.416.083-.416.417m206.666 1.239c0 .894.038 1.011.328 1.011.814 0 .939-1.877.131-1.97-.456-.052-.459-.046-.459.959m13.452-.886c-.411.412.103 1.897.656 1.897.643 0 .533-1.891-.114-1.966-.233-.027-.476.004-.542.069m-151.674 2.008c-.508.508-.096.722 1.389.722s1.5-.003 1.5-.417-2.516-.678-2.889-.305m37.889.305c0 .425.019.432 1.042.383.914-.043 1.041-.09 1.041-.383s-.127-.339-1.041-.383c-1.023-.048-1.042-.041-1.042.383m99.5.75c0 .889-.037 1-.333 1s-.334.111-.334 1-.037 1-.333 1-.333.111-.333 1.084-.035 1.083-.334 1.083-.333.111-.333 1.25c0 1.563.651 1.915 1.001.542.207-.815.73-2.474 1.185-3.765.173-.49.314-1.092.314-1.338a1.72 1.72 0 0 1 .271-.836c.72-1.028.619-2.02-.205-2.02h-.566v1m14.833-.424c0 .59.295 1.424.504 1.424.064 0 .159.362.212.804s.204 1.061.337 1.375.32.871.415 1.238c.178.684.574 1.946.891 2.833.098.275.303.95.455 1.5.466 1.683 1.02 1.553 1.02-.238 0-1.234-.028-1.345-.334-1.345-.296 0-.333-.111-.333-1s-.037-1-.333-1-.334-.111-.334-1.083-.034-1.084-.333-1.084-.333-.111-.333-1-.037-1-.334-1-.333-.111-.333-1v-1h-.583c-.554 0-.584.029-.584.576m-154.505.612c-.575.545-.828.904-.762 1.078.056.144.101.293.101.331s.187.07.416.07c.306 0 .417-.089.417-.333a.29.29 0 0 1 .333-.334.29.29 0 0 0 .334-.333.29.29 0 0 1 .333-.333c.456 0 .465-.76.011-.879-.225-.059-.581.161-1.183.733m5.964-.739c-.43.112-.393.885.041.885a.29.29 0 0 1 .334.333c0 .244.111.333.416.333s.417.089.417.334a.29.29 0 0 0 .333.333c.299 0 .334.111.334 1.083 0 1.126.181 1.333.814.932.308-.195.162-1.831-.185-2.085-.136-.1-.3-.346-.364-.547-.099-.314-1.616-1.752-1.788-1.697-.034.011-.192.054-.352.096m31.484.437c-.454.296-.776.633-.776.811s-.123.306-.292.31c-.315.006-1.098 1.028-1.286 1.677-.063.22-.236.662-.383.983-.467 1.017-.383 2.072.169 2.136.455.052.459.045.459-.947 0-.909.033-1.004.375-1.052.311-.045.383-.173.426-.762.041-.573.113-.708.375-.708s.324-.118.324-.667v-.667h.666c.556 0 .667-.055.667-.333a.29.29 0 0 1 .333-.333c.24 0 .334-.111.334-.398 0-.606-.513-.625-1.391-.05m5.668-.441c-.399.399-.093.889.556.889.556 0 .667.055.667.333 0 .215.111.333.314.333.173 0 .352.149.401.334a.443.443 0 0 0 .436.333c.296 0 .349.101.349.667 0 .629.027.666.5.666.898 0 .158-2.379-.874-2.807-.076-.032-.353-.238-.615-.459-.456-.384-1.47-.553-1.734-.289m29.093.148-.37.26v13.837l.375-.053.375-.053.043-6.625.044-6.625h2.748c2.62 0 2.748-.016 2.748-.328 0-.555-.543-.672-3.119-.672-1.969 0-2.549.053-2.844.259m108.722.111c-.405.579-.393 30.364.013 30.944.306.437 3.653.494 4.078.069.506-.506.038-.717-1.595-.717h-1.588V37.667h1.5c1.395 0 1.5-.024 1.5-.338 0-.755-3.405-1.009-3.908-.292m70.357-.254c-.559.145-.616.842-.616 7.468 0 6.74.013 6.873.668 6.665.324-.103.332-.261.332-6.677v-6.572h5.333v-.398c0-.271-.119-.429-.375-.497-.43-.116-4.89-.106-5.342.011m-195.449.706c0 .77.283 1.344.662 1.344.298 0 .338-.107.338-.916 0-.908-.005-.917-.5-.917-.442 0-.5.057-.5.489m35.84.053c.004.298.128.841.276 1.208.211.525.28 1.448.323 4.333.065 4.369.046 4.25.712 4.25h.515V39h-.416c-.398 0-.417-.044-.417-1v-1h-.5c-.454 0-.499.049-.493.542m178.914-.223c-.055.175.066.794.27 1.375.337.956.374 1.396.395 4.651.026 3.844.05 3.988.674 3.988h.407v-4.166c0-4.056-.009-4.167-.334-4.167-.296 0-.333-.111-.333-1 0-1.067-.797-1.57-1.079-.681m-191.296-.022c-.685.142-.361 1.036.375 1.036.556 0 .667.056.667.334a.29.29 0 0 0 .333.333c.278 0 .333.111.333.667s.056.666.334.666c.299 0 .333.111.333 1.094v1.094l.542-.052c1.052-.102.814-1.846-.502-3.677-.312-.436-.656-.792-.764-.792s-.283-.14-.39-.312c-.202-.323-.757-.495-1.261-.391m107.068.059c-.239.089-.36.275-.36.555 0 .498 1.704.668 1.888.189.21-.548-.769-1.025-1.528-.744m71.849-.006c-.705.262-.506.983.272.983.507 0 .666.073.734.334a.444.444 0 0 0 .436.333c.296 0 .349.101.349.667 0 .555.056.666.334.666.299 0 .333.111.333 1.084 0 1.146.437 1.511.999.835.422-.509-.438-3.278-1.096-3.53a.386.386 0 0 1-.236-.328c0-.131-.132-.284-.292-.341a2.465 2.465 0 0 1-.625-.386c-.467-.398-.774-.478-1.208-.317m-69.931.761c-.264.264-.108.889.222.889a.29.29 0 0 1 .334.333.29.29 0 0 0 .333.334.29.29 0 0 1 .333.333.29.29 0 0 0 .334.333c.284 0 .333.111.333.75 0 .686.035.75.411.75 1.049 0 .778-1.336-.549-2.709-1.113-1.152-1.429-1.335-1.751-1.013m-169.713 1.086c-.067.108-.104.963-.082 1.9.024 1.066-.028 1.745-.139 1.813-.507.314-.184.923.49.923h.666V39h-.406c-.224 0-.462.089-.529.197m37.993.061c-.302.785.181 3.409.627 3.409.29 0 .315-.146.315-1.834V39h-.422c-.232 0-.466.116-.52.258m-57.885.231c-.66 1.233.178 5 1.144 5.148.199.03.35.176.35.339 0 .307 1.249 1.357 1.614 1.357.12 0 .219.069.219.154 0 .168 1.931 1.18 2.251 1.18.109 0 .371.15.583.333.636.552 1.5.456 1.5-.167 0-.472-.037-.5-.667-.5-.556 0-.667-.055-.667-.333s-.111-.333-.666-.333-.667-.056-.667-.334c0-.284-.111-.333-.75-.333-.689 0-.75-.034-.75-.417 0-.305-.089-.416-.333-.416a.29.29 0 0 1-.334-.334c0-.277-.111-.333-.666-.333H124v-.667c0-.555-.056-.666-.333-.666-.315 0-.334-.111-.334-2 0-2.077-.294-2.674-.827-1.678m-10.935.399c-.047.122-.063.891-.036 1.709l.048 1.486h1l.049-1.474c.031-.945-.022-1.559-.146-1.709-.245-.296-.803-.303-.915-.012m58.762 2.279c0 1.555.023 1.666.334 1.666a.29.29 0 0 1 .333.334c0 .257.111.333.488.333.585 0 .753-.457.306-.833-.205-.172-.348-.656-.46-1.554-.186-1.495-.236-1.613-.677-1.613-.299 0-.324.128-.324 1.667M147.5 43.313c0 3.499.637 3.474.985-.039.202-2.038.185-2.107-.495-2.107h-.49v2.146m-15.167-.896c0 .639.05.75.334.75s.333-.111.333-.75-.049-.75-.333-.75-.334.111-.334.75m182.334 1.166v1.584h.571c.684 0 .738-.158.562-1.645-.267-2.26-1.133-2.213-1.133.061m-43.666-.335c-.348.914-.395 1.739-.105 1.85.376.145.339.402-.057.402-.884 0-1.091 2.384-.214 2.469l.542.052v-1.01c0-.9.036-1.011.333-1.011s.333.111.333 1.011v1.01l.542-.052c.707-.068.792-.639.317-2.136a33.709 33.709 0 0 1-.56-2c-.257-1.085-.829-1.38-1.131-.585m-90.468.452c-.39.391-.237.8.3.8.445 0 .5-.056.5-.5 0-.537-.409-.691-.8-.3m-68.2 1.481c0 1.375.025 1.486.334 1.486.277 0 .333.111.333.666s.056.667.333.667.334.111.334.667.055.666.333.666a.29.29 0 0 1 .333.334.29.29 0 0 0 .334.333c.227 0 .333.111.333.349 0 .209.134.384.333.436.184.048.334.193.334.322s.188.306.418.393.398.253.375.367.125.234.332.266c.239.036.375.173.375.379s.115.321.333.321a.29.29 0 0 1 .333.334c0 .277.111.333.667.333s.667.056.667.333a.29.29 0 0 0 .333.334.29.29 0 0 1 .333.333c0 .277.111.333.655.333.553 0 .664.059.709.375.044.31.173.384.744.426.52.038.712.131.776.375.128.489 1.539.473 1.667-.019.065-.246-.012-.381-.272-.481-.661-.252-2.014-.909-2.445-1.188a8.434 8.434 0 0 0-.781-.405c-.291-.134-.577-.32-.634-.413s-.295-.17-.527-.17c-.277 0-.452-.11-.506-.319-.046-.176-.297-.408-.556-.516s-.513-.301-.562-.43a.395.395 0 0 0-.34-.235c-.137 0-.33-.15-.428-.333s-.288-.333-.422-.333-.244-.079-.244-.175-.265-.447-.588-.78a10.608 10.608 0 0 1-1.077-1.367c-.269-.419-.605-.88-.746-1.026s-.256-.359-.256-.474-.113-.45-.252-.742-.382-1.046-.541-1.678c-.459-1.816-.874-1.694-.874.256m45.435-.854c-.132.794-.129 15.327.003 15.986.072.361.2.52.417.52.301 0 .312-.301.312-8.547 0-8.293-.009-8.548-.317-8.548-.234 0-.343.155-.415.589m47.843.951c-.061.061-.111.698-.111 1.416 0 1.195-.028 1.306-.333 1.306a.29.29 0 0 0-.334.333.29.29 0 0 1-.333.334.29.29 0 0 0-.333.333c0 .226-.111.333-.344.333-.496 0-.402 1.06.101 1.132.619.089 1.961-1.415 1.854-2.077-.049-.301-.038-.54.025-.531.576.081.844-.41.89-1.63.033-.877-.599-1.432-1.082-.949m55.222.871c0 .948.246 1.361.659 1.106.375-.232.567-1.633.254-1.862-.681-.498-.913-.306-.913.756M384.5 46.5c0 1.338.547 1.988.899 1.069.326-.849.308-2.036-.034-2.219-.766-.409-.865-.278-.865 1.15m-69.167 6.083v6.25h.834v-12.5h-.834v6.25m-55.166-4.25c0 .869-.042 1-.314 1-.362 0-.514.429-.517 1.459-.002.596-.055.708-.336.708-.296 0-.333.111-.333 1s-.037 1-.334 1-.333.111-.333 1.083-.034 1.084-.333 1.084c-.306 0-.334.111-.334 1.333s-.027 1.333-.333 1.333c-.299 0-.333.111-.333 1.084s-.035 1.083-.334 1.083-.333.111-.333 1-.037 1-.333 1-.334.111-.334 1c0 .87-.041 1-.315 1-.398 0-.518.313-.518 1.347 0 .709-.045.82-.333.82-.572 0-.5 2.429.075 2.539.453.087.504.01.849-1.289.302-1.138.839-2.861 1.143-3.667.138-.367.255-.789.259-.939s.119-.488.256-.75.296-.834.355-1.269.161-.792.229-.792c.173 0 .545-1.394.473-1.77-.033-.17.07-.44.23-.599s.333-.497.388-.752a15.25 15.25 0 0 1 .347-1.212 23.12 23.12 0 0 0 .411-1.417c.09-.367.267-.892.393-1.167s.284-.8.35-1.166.182-.747.259-.845.226-.585.331-1.083.264-.997.354-1.109c.617-.767.483-2.047-.214-2.047-.486 0-.488.005-.488 1m21.777-.889c-.32.321.041 1.889.435 1.889.154 0 .2.176.153.578-.042.366.062.844.284 1.303.193.398.351.91.351 1.137s.139.686.31 1.021.359.912.418 1.283.215.919.344 1.218.432 1.219.671 2.044l.557 1.916c.329 1.117.866.608.866-.821 0-1.234-.027-1.345-.333-1.345-.296 0-.333-.111-.333-1s-.037-1-.334-1-.333-.111-.333-1.084-.034-1.083-.333-1.083-.334-.111-.334-1c0-.926-.027-1-.375-1s-.375-.072-.375-1.041c0-.954-.031-1.047-.375-1.096s-.375-.143-.375-1.041c0-.97-.4-1.366-.889-.878m-66.165.514-.29 1.125c-.118.459-.322 1.003-.454 1.209s-.206.557-.163.779c.056.292-.008.426-.229.483-.168.044-.383.256-.479.472-.242.548-.795 1.27-1.622 2.12-.948.974-.981 1.563-.084 1.489.502-.041.636-.125.679-.427.034-.241.168-.375.375-.375s.321-.115.321-.333a.29.29 0 0 1 .334-.333c.277 0 .333-.111.333-.667s.056-.667.333-.667.334-.111.334-.666.055-.667.333-.667c.284 0 .333-.111.333-.75s.05-.75.334-.75c.301 0 .333-.111.333-1.167 0-1.163-.489-1.757-.721-.875m178.898.099c-.082.215-.201.737-.264 1.161s-.22.858-.348.964-.232.445-.232.755c0 .367-.08.563-.229.563-.127 0-.323.225-.437.5s-.271.5-.35.5-.262.232-.408.516-.599.822-1.005 1.198-.737.816-.737.979c0 .196-.086.264-.252.2-.139-.053-.372.002-.518.124a3.943 3.943 0 0 1-.623.399c-.47.236-.51 2.047-.056 2.548.155.172.282.422.282.556s.148.534.33.889a10.62 10.62 0 0 1 .513 1.202c.1.306.29.556.42.556.154 0 .237.181.237.516 0 .283.108.715.24.958s.441.93.685 1.526a47.92 47.92 0 0 0 .843 1.919c.219.459.399.919.399 1.021s.103.271.229.376.275.479.332.832.214.734.349.847.295.461.354.773.168.606.242.652.261.463.415.927.385.883.513.932.232.269.232.489.152.681.337 1.024a4.82 4.82 0 0 1 .438 1.249c.2 1.236.892.88.892-.458 0-.972-.034-1.083-.333-1.083-.278 0-.334-.111-.334-.667s-.055-.667-.333-.667c-.296 0-.333-.111-.333-1s-.037-1-.334-1c-.279 0-.333-.111-.333-.682 0-.542-.068-.7-.333-.769s-.334-.228-.334-.735c0-.536-.057-.647-.333-.647-.296 0-.333-.111-.333-1 0-.879-.039-1-.324-1-.262 0-.334-.136-.375-.708-.03-.414-.138-.717-.26-.729a32.56 32.56 0 0 1-.375-.042c-.091-.012-.166-.321-.166-.688 0-.555-.056-.666-.334-.666S392 63.056 392 62.5c0-.58-.049-.667-.375-.666-.356 0-.372-.054-.319-1.084.052-1.005.031-1.083-.292-1.083-.294 0-.347-.102-.347-.667 0-.556-.056-.667-.334-.667-.295 0-.333-.111-.333-.98 0-.841.048-.993.333-1.068.184-.048.334-.207.334-.353 0-.198.167-.265.666-.265.6 0 .667-.042.667-.417 0-.306.089-.417.333-.417a.29.29 0 0 0 .334-.333c0-.244.111-.333.416-.333.375 0 .417-.067.417-.667 0-.556.056-.667.333-.667s.334-.111.334-.666.055-.667.333-.667c.284 0 .333-.111.333-.75s.05-.75.334-.75c.301 0 .333-.111.333-1.167 0-1.258-.471-1.702-.823-.776m-264.344.356c0 .49.683.753 1.086.419.509-.423.304-.832-.419-.832-.599 0-.667.042-.667.413m116.834 3.504v3.916h-6.928c-7.102 0-7.572.041-7.572.655 0 .5.184.512 8.097.512h7.569v-9h-1.166v3.917m109.461-.042-.045 3.875-7.083.083c-3.896.046-7.177.144-7.292.219-.325.21-.298 11.427.028 11.874.228.312.542.326 8.531.37 5.699.032 8.362.104 8.513.229.17.141.22 1.042.22 3.995v3.813h.833v-9H343V57h14.5v-9h-.827l-.045 3.875m27.205-3.553c0 .239-.107.345-.349.345a.444.444 0 0 0-.436.333.45.45 0 0 1-.401.333c-.203 0-.314.118-.314.334 0 .296-.111.333-1 .333-.932 0-1 .026-1 .383 0 1.023 1.977 1.09 2.013.069.008-.203.051-.275.098-.16.275.682 2.473-1.032 2.358-1.84-.073-.519-.969-.639-.969-.13m-114.232.109c-.056.145-.149.689-.207 1.208s-.183 1.042-.278 1.162-.314.832-.487 1.583c-.688 2.98-.778 3.329-1.011 3.92-.642 1.631-.433 2.799.419 2.343.237-.127.296-.374.296-1.225 0-.978.031-1.07.375-1.119.35-.049.379-.146.424-1.428.043-1.238.081-1.375.375-1.375s.326-.12.326-1.333c0-1.223.028-1.334.334-1.334s.333-.111.333-1.333c0-1.338-.547-1.988-.899-1.069m3.01-.153c-.301.301-.114 2.419.222 2.507.298.078.334.227.334 1.401V53.5h.565c.7 0 .821-.265.594-1.301-.26-1.187-.332-1.366-.546-1.366-.125 0-.199-.316-.202-.875-.009-1.5-.425-2.222-.967-1.68M132 49.077c0 .334.124.447.669.61.367.11.752.301.853.423s.279.223.393.223.404.156.645.345c.591.465 1.19.375 1.19-.178 0-.305-.1-.431-.375-.47-.241-.034-.375-.168-.375-.375 0-.264-.119-.322-.667-.322-.555 0-.666-.055-.666-.333 0-.289-.111-.333-.834-.333-.774 0-.833.029-.833.41m69.444 1.034c-.422.422.147 1.056.948 1.056.703 0 .941-.174.941-.685 0-.473-1.493-.767-1.889-.371m-65.581 1.093c.03.204.222.455.428.557a3.63 3.63 0 0 1 .679.462c.169.152.394.277.501.277s.196.112.196.25c0 .143.15.25.349.25.208 0 .384.134.436.333a.45.45 0 0 0 .401.334c.203 0 .314.118.314.333 0 .185.111.333.25.333s.25.147.25.325.095.385.212.459.302.339.413.591c.326.744 1.041.648 1.041-.14 0-.449-.079-.62-.318-.682a.626.626 0 0 1-.401-.401.443.443 0 0 0-.412-.318.445.445 0 0 1-.417-.334c-.048-.183-.207-.333-.353-.333-.154 0-.265-.139-.265-.333a.29.29 0 0 0-.334-.334.29.29 0 0 1-.333-.333.29.29 0 0 0-.333-.333.29.29 0 0 1-.334-.334.29.29 0 0 0-.333-.333.29.29 0 0 1-.333-.333c0-.279-.111-.334-.679-.334-.606 0-.672.04-.625.371M274 55c0 1.222.028 1.333.333 1.333.299 0 .334.111.334 1.078 0 1.206.419 1.741.948 1.212.259-.259.054-2.075-.256-2.28-.078-.051-.185-.468-.238-.926C274.862 53.181 274 52.86 274 55m-63.117.545c-.073.117-.34.303-.593.414-.574.252-.499 1.576.168 2.958.561 1.163.819 1.747 1.05 2.375.383 1.042 1.031.609.96-.641-.045-.789-.098-.908-.426-.954-.317-.045-.375-.156-.375-.709 0-.544-.057-.655-.334-.655-.296 0-.333-.111-.333-1s.037-1 .333-1c.26 0 .334-.111.334-.5 0-.534-.511-.722-.784-.288m-86.008.559c-.552.239-.224.896.447.896.509 0 .679.074.761.333s.253.334.762.334c.544 0 .655.056.655.333s.111.333.667.333.666.056.666.334.111.333.667.333.667.056.667.333c0 .245.111.334.416.334.337 0 .417.082.417.428 0 .508.706.534.802.029.065-.341-.822-1.291-1.206-1.291a.26.26 0 0 1-.263-.254c0-.14-.196-.329-.436-.42a3.931 3.931 0 0 1-.856-.496c-.23-.181-.55-.33-.71-.33a.74.74 0 0 1-.494-.245c-.112-.135-.478-.294-.812-.352s-.691-.21-.793-.337c-.204-.256-1.032-.436-1.357-.295m16.202.405c-.232.377.083.991.51.991.361 0 .413-.073.413-.583 0-.595-.634-.875-.923-.408m.701 1.269c-.354.354.087 1.808.559 1.843.294.022.33-.082.33-.965 0-.971-.401-1.367-.889-.878m22.286.296c-.308.802-.173.84 3.146.888l3.123.045v3.83c0 3.719-.009 3.83-.333 3.83a.29.29 0 0 0-.333.333c0 .284-.111.333-.75.333-.611 0-.75.056-.75.3 0 .723.839.922 1.545.367.233-.183.544-.333.692-.333.794 0 .94-.825.892-5.034-.056-4.832.293-4.369-3.346-4.435-1.576-.029-2.938-.123-3.025-.208-.24-.238-.757-.187-.861.084m32.103.881c-.477.181-.495.504-.498 8.92l-.002 8.458h.833V59.667h3.5v.75c0 .639.049.75.333.75.297 0 .334.111.334 1s.037 1 .333 1c.278 0 .333.111.333.666 0 .549.057.667.324.667.262 0 .334.136.375.708.043.589.115.718.426.762.341.048.375.143.375 1.042 0 .877.038.988.334.988.277 0 .333.111.333.667s.056.666.333.666c.299 0 .334.111.334 1.084s.034 1.083.333 1.083c.278 0 .333.111.333.667s.056.666.334.666.333.111.333.667c0 .651.014.667.583.667.695 0 .776-.387.28-1.336-.167-.32-.555-1.237-.863-2.039s-.622-1.459-.697-1.459-.135-.093-.134-.208c.005-.482-1.103-3.016-1.346-3.079-.181-.048-.241-.211-.194-.53.039-.267-.08-.736-.281-1.111-.191-.358-.35-.764-.353-.903s-.117-.4-.254-.58-.323-.609-.415-.951-.267-.722-.388-.843-.269-.48-.329-.799c-.24-1.28-3.101-2.075-4.942-1.374m178.666.212c-.324.324-.333.555-.333 8.75v8.416h1V59.667h3.5v.75c0 .639.049.75.333.75.297 0 .334.111.334 1s.037 1 .333 1c.278 0 .333.111.333.666s.056.667.334.667c.284 0 .333.111.333.75s.049.75.333.75c.297 0 .334.111.334 1s.037 1 .333 1c.278 0 .333.111.333.667 0 .58.049.666.375.666.349 0 .375.072.375 1.042 0 .953.032 1.046.375 1.095.317.045.375.156.375.708 0 .544.057.655.334.655s.333.111.333.667c0 .63.028.667.5.667.513 0 .777-.976.338-1.248-.089-.055-.246-.415-.349-.801s-.279-.814-.392-.951-.294-.56-.402-.939-.309-.782-.446-.895-.249-.389-.249-.612-.146-.682-.323-1.021a11.65 11.65 0 0 1-.521-1.158c-.108-.298-.301-.542-.429-.542-.158 0-.204-.121-.141-.375.053-.216-.052-.655-.247-1.035-.186-.363-.339-.724-.339-.802 0-.125-.232-.671-1.077-2.538a11.462 11.462 0 0 1-.4-1.042c-.368-1.154-.843-1.375-2.964-1.375-1.67 0-1.931.039-2.226.334m-227.125.118c-.152.056-.208.675-.208 2.312v2.236h.583c.683 0 .666.118.351-2.547-.212-1.801-.337-2.144-.726-2.001m-5.23.562c-.141.087-.223 4.057-.149 7.278.002.119.218.208.504.208h.5v-3.797c0-4.051-.034-4.197-.855-3.689m172.3-.069c-.372.372-.107 3.222.299 3.222.652 0 1.16-2.809.575-3.179-.28-.177-.719-.199-.874-.043m-203.945 3.47c0 2.744.001 2.752.375 2.749.833-.005.869-.134.624-2.255-.299-2.601-.66-2.409 4.52-2.409 4.48 0 4.648.021 4.648.581 0 .956.199 1.419.611 1.419.397 0 .402-.019.354-1.375l-.048-1.375-5.542-.044-5.542-.043v2.752M286 61.075c0 .836.298 1.403.684 1.302.618-.161.45-1.877-.184-1.877-.459 0-.5.047-.5.575m-154.333.842c0 1.205.014 1.25.396 1.25.665 0 .815-.35.614-1.436a31.135 31.135 0 0 1-.177-1.012c0-.029-.187-.052-.417-.052-.407 0-.416.027-.416 1.25m26.5-.074c0 .794.316 2.157.501 2.157.07 0 .178.267.239.593s.258.718.436.87.324.358.324.455c0 .339 1.588 1.749 1.969 1.749.206 0 .417.109.468.243.236.616 1.229.457 1.229-.195 0-.386-.05-.412-.666-.353-.601.057-.667.026-.667-.316 0-.268-.098-.379-.333-.379a.29.29 0 0 1-.334-.334A.29.29 0 0 0 161 66a.29.29 0 0 1-.333-.333.29.29 0 0 0-.324-.334c-.262 0-.334-.135-.375-.708-.043-.589-.115-.717-.426-.762-.353-.05-.375-.131-.375-1.375v-1.321h-.5c-.474 0-.5.036-.5.676m53.883.266c-.058.152.057.583.256.958s.361.753.361.839.141.46.314.833c.758 1.631 1.153 2.536 1.256 2.871.06.198.219.451.353.562s.243.384.243.607.147.682.327 1.021c.36.678.865 1.818 1.178 2.658.112.298.268.542.349.542s.146.134.146.298.153.595.34.958.385.979.439 1.369c.091.645.142.708.577.708.631 0 .764-1.956.144-2.118-.261-.068-.333-.227-.333-.734 0-.537-.057-.648-.333-.648-.297 0-.334-.111-.334-1 0-.955-.018-1-.416-1-.383 0-.417-.061-.417-.75 0-.639-.049-.75-.333-.75-.278 0-.334-.111-.334-.666S215.778 68 215.5 68c-.296 0-.333-.111-.333-1s-.037-1-.334-1c-.279 0-.333-.111-.333-.682 0-.542-.068-.7-.333-.77s-.334-.227-.334-.734c0-.536-.057-.647-.333-.647s-.333-.111-.333-.667c0-.733-.869-1.037-1.117-.391m74.617 1.05c0 .688.286 1.508.526 1.508.077 0 .14.243.14.541 0 .509.309 1.594 1.009 3.542.165.458.352 1.096.416 1.417s.213.773.331 1.005.27.72.335 1.084c.174.96.35 1.228.74 1.126.511-.133.513-2.549.003-2.549-.299 0-.334-.111-.334-1.083s-.034-1.083-.333-1.083-.333-.111-.333-1c0-.881-.039-1-.326-1-.282 0-.332-.137-.375-1.042-.044-.936-.088-1.047-.424-1.095-.341-.048-.375-.143-.375-1.042 0-.987-.001-.988-.5-.988-.472 0-.5.038-.5.659m27.333.644c0 .518-.071.677-.333.745a.444.444 0 0 0-.334.436c0 .238-.106.349-.333.349a.29.29 0 0 0-.333.334c0 .225-.111.333-.345.333-.277 0-.334.089-.291.458.06.529.732.754.904.304.055-.144.196-.262.313-.262.558 0 2.074-2.541 1.79-3-.371-.599-1.038-.405-1.038.303m-192.323.268c-.263.317-.057 1.383.346 1.785.171.171.31.429.31.573 0 .275.87 1.238 1.117 1.238.078 0 .271.15.428.333.491.573 1.455.462 1.455-.167 0-.472-.037-.5-.666-.5-.556 0-.667-.055-.667-.333a.29.29 0 0 0-.333-.333.29.29 0 0 1-.334-.334A.29.29 0 0 0 123 66c-.299 0-.333-.111-.333-1.083 0-1.139-.437-1.513-.99-.846m26.49 1.262c0 1.223.027 1.334.333 1.334.278 0 .333.111.333.666s.056.667.334.667.333.111.333.667c0 .6.042.666.417.666.382 0 .416.061.416.75 0 .639.05.75.334.75a.29.29 0 0 1 .333.334.29.29 0 0 0 .333.333.29.29 0 0 1 .334.333.29.29 0 0 0 .333.334.29.29 0 0 1 .333.333.29.29 0 0 0 .334.333.29.29 0 0 1 .333.334.29.29 0 0 0 .333.333.29.29 0 0 1 .334.333.29.29 0 0 0 .333.334c.183 0 .343.075.354.166l.042.375c.012.122.316.23.729.26.573.041.708.113.708.375s.117.324.584.324c.82 0 .877-.783.069-.945-.283-.056-.55-.195-.593-.307s-.457-.45-.92-.75c-.854-.553-2.306-1.869-2.306-2.089 0-.067-.169-.284-.375-.484a4.675 4.675 0 0 1-.581-.686 76.03 76.03 0 0 0-.608-.93c-.222-.335-.453-.766-.514-.958a1.65 1.65 0 0 0-.318-.559c-.254-.257-.712-1.526-1.051-2.917-.423-1.731-1.053-1.556-1.053.291m-16.5.25c0 .973-.035 1.084-.334 1.084A.29.29 0 0 0 131 67c0 .247-.111.333-.428.333-.349 0-.419.07-.375.375.117.829 1.636.193 1.636-.685 0-.202.106-.356.244-.356.523 0 .826-1.53.39-1.967-.535-.534-.8-.241-.8.883m-20.146 1.5c.028.842.062.917.421.917.345 0 .391.078.391.667 0 .555.056.666.334.666.284 0 .333.111.333.75s.049.75.333.75a.29.29 0 0 1 .334.334.29.29 0 0 0 .333.333.29.29 0 0 1 .333.333.29.29 0 0 0 .334.334.29.29 0 0 1 .333.333.29.29 0 0 0 .333.333.29.29 0 0 1 .334.334.29.29 0 0 0 .333.333.29.29 0 0 1 .333.333c0 .245.111.334.417.334.333 0 .417.083.417.416 0 .375.066.417.666.417.556 0 .667.056.667.333s.111.334.667.334.666.055.666.333c0 .293.111.333.917.333.855 0 .917-.027.917-.397 0-.402-.35-.595-1.088-.6-.186-.002-.467-.153-.624-.336a1.06 1.06 0 0 0-.698-.333c-.237 0-.485-.137-.584-.322a1.055 1.055 0 0 0-.548-.437c-.762-.234-3.327-2.604-3.551-3.283-.053-.16-.157-.292-.232-.292s-.226-.219-.337-.488-.308-.528-.437-.578-.235-.232-.235-.406-.15-.507-.333-.74-.333-.532-.333-.664c0-.663-.375-1.29-.771-1.29-.383 0-.403.049-.375.916m153.516-.206c-.194.207-.405.713-.468 1.125s-.194.898-.29 1.081-.305.896-.462 1.584-.4 1.65-.54 2.14c-.309 1.078-.224 1.36.407 1.36.479 0 .483-.009.483-1 0-.956.018-1 .416-1 .412 0 .417-.017.417-1.417 0-1.306.026-1.417.333-1.417.297 0 .334-.111.334-1v-1h11.666v1c0 .889.037 1 .334 1 .307 0 .333.111.333 1.417 0 1.4.005 1.417.417 1.417.398 0 .416.044.416 1v1h.506c.814 0 .767-.515-.415-4.5a33.36 33.36 0 0 1-.426-1.637c-.369-1.609-.007-1.53-7-1.53h-6.107l-.354.377m44.796.2c0 .602.548.845 1.358.602 1.161-.348.926-1.012-.358-1.012-.951 0-1 .019-1 .41m-76.923.61c-.195.616.145.641 8.614.644 7.389.002 8.284.031 8.375.266.055.145.101 1.945.101 4v3.736h1.167v-9h-18.145l-.112.354m-90.985-.034c-.052.084-.141.496-.199.917l-.105.763h.523c.522 0 .523 0 .523-.916 0-.891-.405-1.308-.742-.764m-16.258.744c0 .502.336.598 2.111.601 1.634.002 1.889-.078 1.889-.599 0-.399-.002-.399-2-.399s-2 .001-2 .397m39.126.02c.075.396.135.416 1.226.416 1.113 0 1.148-.012 1.148-.416s-.03-.417-1.227-.417c-1.219 0-1.227.003-1.147.417m88.485 1.027c-.061.062-.111.549-.111 1.084 0 .861-.038.972-.334.972s-.333.111-.333 1-.037 1-.333 1c-.308 0-.334.111-.334 1.417 0 1.37.013 1.416.386 1.416.345 0 .41-.121.6-1.125.118-.618.365-1.445.548-1.838.216-.462.311-.947.27-1.378-.044-.47-.004-.643.137-.589.232.089.559-.738.559-1.41 0-.54-.7-.904-1.055-.549m-112.177.32a1.686 1.686 0 0 0-.101.492c0 .126-.169.413-.375.638s-.525.61-.708.855c-.552.735-1.803 1.929-2.292 2.186-.252.132-.458.351-.458.486s-.144.246-.32.246c-.573 0-.847.194-.847.601 0 .345.079.399.583.399.473 0 .584-.064.584-.334 0-.277.111-.333.666-.333.6 0 .667-.042.667-.417 0-.305.089-.416.333-.416a.29.29 0 0 0 .334-.334.29.29 0 0 1 .333-.333.29.29 0 0 0 .333-.333c0-.245.111-.334.417-.334s.417-.089.417-.333a.29.29 0 0 1 .333-.333c.278 0 .333-.111.333-.667s.056-.667.334-.667.333-.111.333-.666c0-.713-.666-1.011-.899-.403m39.319 1.3c-.231.303-.42.675-.42.827 0 .183-.14.276-.417.276-.229 0-.416.077-.416.172s-.132.227-.292.295c-1.551.658-2.05 1.533-.875 1.533.556 0 .667-.056.667-.334A.29.29 0 0 1 179 73.5a.29.29 0 0 0 .333-.333.29.29 0 0 1 .334-.334.29.29 0 0 0 .333-.333c0-.278.111-.333.667-.333h.666v-.733c0-.966-.35-1.108-.913-.37m109.972 2.564c-.527.336-.226 1.872.366 1.872.388 0 .409-.049.409-1 0-1.019-.198-1.241-.775-.872m-114.184.482c-.516.209-.229.89.375.89.537 0 .584-.04.584-.5 0-.502-.339-.64-.959-.39m29.959 1.223v1h.666c.767 0 .873-.352.426-1.422-.45-1.075-1.092-.827-1.092.422m56.496-.572c-.354.929-.216 1.572.337 1.572h.5v-1c0-1.124-.498-1.465-.837-.572m16.837.572v1h.5c.546 0 .728-.929.327-1.677s-.827-.394-.827.677m105.667 0v1h.583c.656 0 .769-.416.4-1.475-.359-1.032-.983-.731-.983.475m-210.292-.559c-.506.212-.234.916.333.862.453-.044.542-.121.542-.469 0-.419-.393-.595-.875-.393m139.244-.004c-.41.41-.107.897.559.897.641 0 .675-.025.625-.459-.053-.457-.865-.757-1.184-.438m-2.244.602c-1.304.272-1.027.961.386.961 1.085 0 1.094-.003 1.042-.44-.067-.553-.505-.713-1.428-.521m-177.25.076c-.706.185-.343.885.458.885.68 0 .75-.037.75-.399 0-.527-.414-.693-1.208-.486m22.653-.004c-.449.45-.092.889.722.889.717 0 .833-.045.833-.327 0-.507-1.183-.934-1.555-.562m15.597-.004c-.689.291-.203.893.719.893.914 0 .927-.007.875-.458-.052-.46-.954-.706-1.594-.435m-50.764.671c-.526.526-.096.889 1.056.889 1.046 0 1.166-.034 1.166-.325 0-.463-1.853-.933-2.222-.564m10.097.075c-1.024.296-.732.814.459.814 1.091 0 1.544-.649.625-.895-.436-.117-.384-.12-1.084.081m27.25-.006c-.754.44-.348.82.875.82 1.047 0 1.167-.034 1.167-.325 0-.507-1.427-.853-2.042-.495m10.811-.035c-1.107.242-.877.855.32.855 1.024 0 1.078-.02 1.078-.397 0-.347-.451-.661-.834-.581l-.564.123M8.667 84.925a27.83 27.83 0 0 1-.875.155c-.525.085-.625.167-.625.511 0 .402.023.409 1.416.409C9.95 86 10 85.987 10 85.617c0-.661-.429-.883-1.333-.692m9.291.094c-.16.09-.291.348-.291.573V86h1.845c1.801 0 1.843-.009 1.791-.364-.032-.223-.214-.406-.47-.473-.826-.217-2.588-.305-2.875-.144m75.555-.005c-1.372.178-1.513.238-1.513.647 0 .32.102.339 1.833.339h1.834v-.411c0-.235-.138-.484-.323-.583-.353-.189-.304-.19-1.831.008m10.112-.066c-.194.051-.292.24-.292.564V86h1.233c1.233 0 1.575-.169 1.285-.638-.09-.146-1.821-.606-1.915-.509-.011.01-.151.053-.311.095m-99.792 1.21v.509h1.011c1.005 0 1.011-.003.959-.459-.05-.434-.104-.461-1.011-.508l-.959-.05v.508m19.534-.291c-.466.465-.236.8.55.8.634 0 .75-.051.75-.328 0-.549-.898-.875-1.3-.472m65.591-.02c-.615.358-.357.82.459.82.634 0 .75-.051.75-.328 0-.53-.673-.804-1.209-.492m18.75-.07c-.727.293-.196.89.792.89h1v-.5c0-.498-.99-.713-1.792-.39m-82.341.756c-.52.52-.239.8.8.8.883 0 1-.038 1-.327 0-.587-1.335-.938-1.8-.473m61.258-.024c-.648.387-.355.824.553.824.823 0 .843-.011.791-.458-.058-.509-.777-.704-1.344-.366m-59.292.991v.5h1c.889 0 1 .037 1 .333s.111.334 1 .334c1.331 0 1.44-.482.209-.924a26.059 26.059 0 0 1-1.317-.513c-1.004-.439-1.892-.313-1.892.27m56.834-.264-1.375.509c-1.232.44-1.123.922.208.922.889 0 1-.037 1-.334S84.111 88 85.011 88c1.005 0 1.011-.003.958-.458-.063-.551-.835-.682-1.802-.306M31.694 88.48c-.481.305-.154.933.514.988.49.041.625.122.625.375 0 .281.121.324.917.324.857 0 .917-.027.917-.401 0-.407-.637-.766-1.359-.766-.169 0-.308-.063-.308-.14 0-.323-.956-.602-1.306-.38m49.098.061c-.252.084-.459.222-.459.306s-.138.153-.308.153c-.722 0-1.358.359-1.358.766 0 .374.06.401.916.401.806 0 .917-.041.917-.334 0-.277.111-.333.667-.333.623 0 .666-.031.666-.481 0-.555-.342-.712-1.041-.478m-45.858 1.556c-.232.605-.116.736.649.736.639 0 .75.05.75.334 0 .27.111.333.584.333.504 0 .583-.054.583-.399 0-.397-.274-.601-.807-.601-.154 0-.373-.15-.488-.333-.255-.409-1.122-.456-1.271-.07m42.194.07c-.115.183-.359.334-.543.336-.936.007-1.128.889-.21.965.537.045.625.004.625-.291s.105-.344.667-.344c.629 0 .666-.027.666-.5 0-.622-.847-.739-1.205-.166m-39.35 1.111c-.371.371-.096.889.472.889.451 0 .583-.069.583-.3 0-.534-.712-.932-1.055-.589m36.928.082c-.428.428-.245.807.388.807.551 0 .591-.034.542-.459-.058-.508-.576-.702-.93-.348m-35.595.751c-.249.249-.103.722.222.722a.29.29 0 0 1 .334.334c0 .284.111.333.75.333.689 0 .75.034.75.417 0 .375.066.416.666.416.556 0 .667.056.667.334a.29.29 0 0 0 .333.333.29.29 0 0 1 .334.333c0 .278.111.334.666.334s.667.055.667.333c0 .244.111.333.417.333s.416.089.416.334c0 .27.111.333.584.333.511 0 .583-.052.583-.417 0-.229-.069-.416-.154-.416s-.366-.177-.625-.392-.636-.378-.838-.362-.337-.02-.299-.081c.108-.174-.411-.832-.656-.832-.121 0-.314-.112-.428-.25a.75.75 0 0 0-.503-.25.447.447 0 0 1-.393-.258c-.055-.141-.344-.369-.643-.506s-.882-.465-1.294-.729c-.731-.468-1.331-.621-1.556-.396m33.556.397c-.413.269-.958.573-1.212.675s-.538.328-.631.501-.307.316-.476.316a.765.765 0 0 0-.515.25c-.114.138-.306.25-.427.25-.3 0-.735.651-.626.936.147.382 1.387.307 1.387-.083a.45.45 0 0 1 .333-.401c.183-.048.333-.207.333-.353 0-.199.168-.266.667-.266.6 0 .667-.041.667-.416s.066-.417.666-.417c.556 0 .667-.056.667-.333 0-.247.111-.334.428-.334.349 0 .419-.069.375-.375-.078-.552-.746-.531-1.636.05m-5.118 3.288c-.933.603-.998 1.204-.132 1.204.472 0 .583-.063.583-.333 0-.226.111-.334.344-.334.276 0 .334-.089.292-.445-.072-.606-.267-.623-1.087-.092m-20.771 1.148c-.249.249-.103.723.222.723a.29.29 0 0 1 .333.333.29.29 0 0 0 .334.333c.244 0 .333.111.333.417 0 .373.068.417.647.417.507 0 .666.072.735.333a.443.443 0 0 0 .436.333c.238 0 .349.106.349.334a.29.29 0 0 0 .333.333.29.29 0 0 1 .333.333.29.29 0 0 0 .334.334.29.29 0 0 1 .333.333.29.29 0 0 0 .333.333.29.29 0 0 1 .334.334.29.29 0 0 0 .333.333.29.29 0 0 1 .333.333.29.29 0 0 0 .334.334c.244 0 .333.111.333.416 0 .297.09.417.314.417a.45.45 0 0 1 .401.333c.075.288.227.334 1.103.334h1.015v-1.378l-.693.093c-.645.087-.742.045-1.381-.603a20.868 20.868 0 0 0-1.411-1.279c-.397-.321-.876-.752-1.065-.958s-.442-.375-.563-.375-.22-.108-.22-.239-.143-.284-.318-.34-.36-.21-.411-.344-.246-.244-.432-.244c-.227 0-.339-.109-.339-.331 0-.211-.258-.489-.708-.765-.39-.238-.912-.577-1.16-.752-.481-.339-.675-.386-.854-.208m18.472.475c-1.474.985-1.471.982-1.341 1.389.172.544 1.314.462 1.394-.1.034-.241.168-.375.375-.375S66 98.218 66 98c0-.226.111-.333.345-.333.262 0 .332-.09.292-.374-.077-.539-.442-.506-1.387.126m-2.083 1.751c0 .094-.188.256-.417.36s-.417.291-.417.413-.108.224-.24.224-.339.131-.459.291-.667.667-1.217 1.125a23.85 23.85 0 0 0-1.509 1.363c-.457.476-.581.521-1.209.437l-.699-.094v1.378h1c.877 0 1-.04 1-.322 0-.207.134-.341.375-.375a.472.472 0 0 0 .428-.428c.034-.241.168-.375.375-.375s.322-.115.322-.334a.29.29 0 0 1 .333-.333.29.29 0 0 0 .334-.333.29.29 0 0 1 .333-.334.29.29 0 0 0 .333-.333.29.29 0 0 1 .334-.333.29.29 0 0 0 .333-.334.29.29 0 0 1 .333-.333.29.29 0 0 0 .334-.333.29.29 0 0 1 .333-.334c.244 0 .333-.111.333-.416S63.744 99 63.5 99c-.183 0-.333.077-.333.17" fill="#c9e1f1"/><path d="m20.338 9.567.187 6.171c.298.654.022.827-1.097.687-.87-.108-.925-.142-.857-.52l.074-.405H9.377l.02.373c.032.599-2.955 1.077-3.397.544a.795.795 0 0 0-.541-.25c-.248 0-.289.053-.16.208.417.503.117.785-.841.789l-.625.003v68.5h.907c.499 0 .953.075 1.01.166.24.389 1.417.192 1.417-.236s.109-.474 1.676-.688c.582-.08.811-.042.979.16.315.38 7.489.396 8.066.018.728-.477 3.445-.012 3.445.59 0 .384 1.593.476 2.157.124.434-.271 1.177.063 1.177.529 0 .357.556.483.75.17.302-.489 1.742-.042 1.763.548.007.203.051.275.097.16.113-.279 1.29-.266 1.948.022l1.317.513c.577.208.791.373.791.61 0 .278.051.298.349.139.369-.198 1.318.063 1.318.362 0 .08.139.146.308.146.722 0 1.359.359 1.359.766 0 .221.075.401.166.401A.167.167 0 0 0 35 90c0-.317.988-.181 1.205.167.115.183.334.333.488.333.533 0 .807.204.807.603 0 .358.035.378.334.191.415-.259.891-.009.968.508.043.287.137.335.509.261.329-.066.688.051 1.281.417l1.369.757c.299.136.588.364.643.505a.447.447 0 0 0 .393.258.75.75 0 0 1 .503.25c.114.138.307.25.428.25.245 0 .764.658.656.832-.038.061.097.098.299.081s.579.147.838.362.54.392.625.392.154.192.154.428c0 .349.06.408.327.324.2-.064.51.024.792.224l1.173.761c.45.276.708.554.708.765 0 .222.112.331.339.331.186 0 .38.11.432.244s.236.289.411.344.318.209.318.34.099.239.22.239.374.168.563.375.668.637 1.065.958a20.35 20.35 0 0 1 1.422 1.292c.73.738.841.791 1.194.567.29-.184.073-.692-.296-.692-.163 0-.335-.15-.383-.334s-.19-.333-.317-.333-.371-.244-.545-.542-.362-.579-.419-.625-.657-1.054-1.332-2.24l-2.132-3.432c-.341-.402-1.349-1.876-1.641-2.399-.149-.269-.544-.847-.877-1.285l-1.272-1.719a23.861 23.861 0 0 0-1.562-1.882c-.492-.528-1.074-1.241-1.293-1.584s-.709-.906-1.089-1.25l-2.842-2.75-2.296-2.125c-.079 0-.243-.098-.364-.218-.663-.655-3.191-2.616-3.373-2.616-.117 0-.348-.15-.514-.333s-.406-.333-.533-.333-.434-.135-.682-.299c-1.271-.839-2.988-1.701-3.389-1.701-.189 0-.534-.15-.768-.334S26.947 74 26.734 74s-.769-.15-1.234-.333c-.508-.201-1.239-.334-1.831-.334-.542 0-1.364-.081-1.826-.18l-.84-.18-.043-28.028.123-28.445c.093-.231.21-2.947.263-6.083l.228-6.125c.128-.447.114-.459-.546-.459h-.678l-.012 5.734m1.619-5.327c.1.52.768.76 2.112.76.672 0 1.217.105 1.6.309.32.17.873.363 1.23.429s.752.222.877.347.56.278.965.339.777.215.826.343.189.233.312.233.477.187.788.417.662.416.782.416.368.15.551.334.48.333.658.333.385.102.459.227.377.352.675.505.541.35.541.439.099.162.22.162.515.265.875.589c1.163 1.044 2.239 1.402 2.239.745 0-.188-.111-.334-.254-.334s-.328-.194-.418-.431c-.151-.394-.221-.421-.83-.318-.533.09-.665.062-.665-.141 0-.14-.155-.303-.344-.363-.694-.22-1.475-.834-1.482-1.165-.006-.266-.119-.335-.549-.333-.442.001-.552-.071-.597-.39-.049-.346-.119-.379-.612-.286-.323.06-.602.031-.664-.07s-.365-.282-.68-.413S30 6.605 30 6.509s-.094-.176-.208-.177c-.759-.003-1.459-.366-1.459-.757 0-.414-.228-.546-.416-.242-.279.451-1.665 0-1.554-.506.038-.173-.067-.228-.363-.189-1.401.185-2.5-.024-2.5-.475 0-.283-.114-.33-.81-.33-.769 0-.806.021-.733.407m67.71-.087c0 .402-1.493.785-2 .514-.5-.268-.806-.195-.864.205-.069.485-.852.782-1.309.496-.432-.27-.494-.256-.494.112 0 .383-.264.604-.904.757a2.806 2.806 0 0 0-.897.44c-.226.178-.504.323-.618.323s-.296.107-.404.238c-.132.159-.383.208-.757.147-.492-.08-.565-.044-.614.304-.046.323-.154.394-.598.393s-.541.061-.541.369c0 .211-.158.455-.365.566-.441.236-.714.448-1.212.941-.208.207-.501.375-.651.375s-.272.114-.272.253c0 .194-.167.243-.709.209-.617-.039-.715.002-.76.319-.082.58.576.846.991.4.178-.191.434-.347.567-.347a.251.251 0 0 0 .244-.256c0-.14.126-.303.279-.362s.408-.225.566-.37.565-.45.904-.679.739-.548.888-.708.404-.292.567-.292.446-.15.629-.333.432-.334.551-.334.472-.187.783-.416.665-.417.787-.417.263-.104.312-.23.4-.281.782-.342.817-.223.969-.36.566-.293.921-.348.765-.202.912-.329.915-.29 1.753-.368c1.655-.152 2.23-.375 2.23-.862 0-.282-.116-.328-.833-.328-.71 0-.833.048-.833.32m2.18.305c.08.344.147 3.035.149 5.98l.212 5.917c.165.443.2 6.491.166 28.586l-.044 28.024-.456.122c-.252.067-1.17.179-2.041.247-1.57.124-2.678.416-3.866 1.019-.339.173-.768.314-.953.314-.395 0-2.12.868-3.382 1.701-.249.164-.556.299-.683.299s-.366.15-.532.333-.393.333-.505.333c-.186 0-1.856 1.257-2.443 1.838a7.259 7.259 0 0 1-.713.579c-.856.612-1.992 1.614-3.506 3.093l-2.083 2.025a8.814 8.814 0 0 0-.917 1.037 26.79 26.79 0 0 1-1.127 1.41c-2.207 2.597-4.659 5.92-5.458 7.393-.186.344-.4.625-.475.625s-.227.169-.338.375a27.14 27.14 0 0 1-.568.978l-2.118 3.531c-.927 1.556-1.092 1.781-1.307 1.782-.123.001-.263.151-.311.334a.45.45 0 0 1-.401.334c-.306 0-.314-.812-.314-33.917l.318-33.917c.341 0 1.516-1.485 1.516-1.917 0-.137.066-.249.147-.249s.268-.253.414-.561.38-.655.519-.77.253-.313.253-.44.15-.379.333-.563.334-.48.334-.66.15-.408.333-.506.333-.278.333-.4.15-.413.334-.646.333-.516.333-.628.169-.376.375-.586c.6-.61 1.125-1.358 1.125-1.602 0-.123.15-.318.333-.433s.334-.32.334-.457.078-.248.175-.248.279-.25.407-.555.349-.652.491-.771.26-.318.26-.445.074-.229.165-.229c.142 0 .351-.273 1.252-1.636.091-.138.451-.558.799-.933l.875-.945c.133-.146.242-.386.242-.534s.116-.334.257-.413c.339-.19.139-.706-.274-.706-.205 0-.316.117-.316.333s-.111.334-.307.334c-.168 0-.391.186-.495.413-.116.257-.279.378-.429.321-.195-.075-.223.041-.147.608.073.544.033.734-.181.854-.151.084-.274.23-.274.323 0 .396-.887 1.314-1.27 1.314-.33 0-.397.084-.397.5 0 .275-.066.5-.146.5s-.191.225-.246.5c-.079.397-.186.5-.521.5-.353 0-.42.078-.42.482 0 .275-.108.524-.25.578s-.25.243-.25.423-.094.426-.209.547-.314.426-.444.678-.374.459-.542.459c-.184 0-.305.12-.305.302 0 .491-.654 1.698-.921 1.698-.135 0-.246.144-.246.319 0 .579-.196.847-.621.847-.351 0-.402.06-.32.375.117.449-.463 1.729-.887 1.956-.162.086-.34.385-.396.663-.078.392-.19.506-.493.506-.341 0-.382.066-.319.5.066.447.027.5-.362.5h-.435v68.978l.342.108c.253.081.48-.035.875-.447a23.55 23.55 0 0 1 1.533-1.389c.55-.458 1.098-.964 1.217-1.125s.326-.291.459-.291.24-.101.24-.224.188-.308.417-.413.417-.275.417-.379c0-.112.169-.158.414-.111.362.069.401.032.318-.302-.079-.315.03-.458.628-.824a28.02 28.02 0 0 0 1.187-.771c.283-.2.593-.288.792-.224.26.082.329.024.333-.283.009-.569 1.388-1.43 1.78-1.111.239.194.263.187.175-.048-.12-.319.293-.977.612-.977.121 0 .313-.113.427-.25a.77.77 0 0 1 .515-.25c.169 0 .383-.142.476-.316s.377-.399.631-.501.833-.416 1.286-.698c.595-.371.951-.488 1.281-.422.373.074.466.026.509-.261.074-.497.552-.768.934-.529.251.157.305.132.326-.153.03-.392.315-.614.794-.617.184-.002.428-.153.543-.336.217-.348 1.205-.484 1.205-.167 0 .092.075.167.167.167s.167-.18.167-.401c0-.407.636-.766 1.358-.766.17 0 .308-.068.308-.15 0-.252.892-.481 1.293-.332.304.112.374.079.374-.176 0-.224.227-.395.792-.597l1.42-.514c.735-.27 1.558-.302 1.705-.064.173.28.416.186.416-.161 0-.541 1.304-.958 1.584-.506.193.313.75.187.75-.17 0-.456.673-.761 1.134-.514.63.337 2.199.238 2.199-.139 0-.588 2.731-1.058 3.441-.593.431.283 7.892.379 7.892.102 0-.261.695-.339 1.558-.175.877.166 1.142.376.986.782-.096.25-.073.25 2.748-.061l.875-.096V17.167h-.744c-.749 0-1.258-.425-1.004-.837.056-.09.019-.163-.081-.163s-.225.112-.277.25c-.219.569-3.489.055-3.457-.544l.02-.373H94.5v.406c0 .355-.097.421-.763.521-.941.141-1.216-.059-.932-.68.137-.302.195-2.134.195-6.172V3.833h-1.298l.145.625M42.966 17.292c-.068.337.369 1.03 1.201 1.904.595.625.734.795 1.779 2.179.329.435.664.792.743.792s.144.103.144.229.114.324.253.44.373.462.519.77.333.561.414.561.148.112.148.248.15.343.333.457.333.273.333.353c0 .253 1.035 1.753 1.272 1.844a.384.384 0 0 1 .228.334c0 .136.244.596.542 1.022s.616.899.708 1.05c1.037 1.714 1.156 1.858 1.528 1.858.235 0 .389-.099.389-.25s-.157-.25-.413-.25c-.369 0-.402-.052-.312-.5.086-.428.05-.5-.248-.5-.364 0-.763-.542-.649-.883.036-.108-.085-.273-.268-.365-.413-.208-.915-1.04-.931-1.543-.007-.216-.118-.375-.261-.375-.312 0-1.251-1.275-1.251-1.697 0-.173-.113-.357-.25-.41-.143-.054-.25-.303-.25-.578 0-.403-.069-.482-.417-.482-.296 0-.417-.09-.417-.313a.77.77 0 0 0-.25-.52c-.137-.114-.25-.381-.25-.593a.48.48 0 0 0-.375-.5c-.449-.138-1.28-.909-1.287-1.193-.002-.111-.154-.283-.338-.381S45 19.714 45 19.583s-.15-.318-.333-.416-.334-.326-.334-.506-.112-.328-.25-.328c-.18 0-.25-.185-.25-.666 0-.725-.733-1.042-.867-.375M124 28.337c0 .425-.718.722-1.458.604-.328-.053-.542-.016-.542.092 0 .247 2.253.074 2.581-.198.414-.343.317-.835-.164-.835-.308 0-.417.089-.417.337m6.333-.024c0 .443.302.639 1.192.771.813.121 1.475.003 1.475-.263 0-.087-.142-.068-.316.04-.473.296-1.419-.017-1.487-.492-.07-.484-.864-.536-.864-.056m30.667.024c0 .209-.163.4-.428.5-.559.213-1.905.21-1.905-.004a.167.167 0 0 0-.167-.166c-.092 0-.167.153-.167.342 0 .23-.177.412-.541.558-.854.342-1.001.414-1.709.844-.366.223-.837.483-1.046.578s-.422.286-.475.424c-.066.171-.224.219-.498.151-.32-.081-.381-.047-.299.165.111.29-1.172 1.771-1.535 1.771-.112 0-.253.225-.313.5s-.165.5-.233.5-.247.262-.4.583-.345.584-.427.584-.193.224-.248.497a1.62 1.62 0 0 1-.438.787 1.11 1.11 0 0 0-.338.761c0 .259-.104.674-.231.921s-.32.882-.428 1.409c-.18.872-.237.958-.634.958-.39 0-.406.023-.153.208s.266.38.101 2.042c-.217 2.177-.381 2.713-.742 2.413-.216-.179-.246.64-.246 6.751 0 6.046.032 6.943.245 6.861.371-.142.468.145.694 2.053.279 2.355.276 2.468-.064 2.557-.187.049-.133.083.149.096.399.017.465.119.696 1.061.339 1.391.797 2.66 1.051 2.917.114.115.257.367.318.559s.292.623.514.958l.608.93c.113.178.374.486.581.686s.375.417.375.484c0 .22 1.452 1.536 2.306 2.089.463.3.877.638.92.75s.31.251.593.307c.423.085.514.183.514.557 0 .353.044.41.2.254.448-.447 1.633-.104 1.633.473 0 .18.075.327.167.327s.167-.185.167-.41c0-.456-.419-.756-1.052-.756-.224 0-.498-.109-.608-.242s-.457-.326-.77-.429-.57-.253-.57-.331-.149-.19-.331-.248c-.416-.132-2.142-1.521-2.586-2.08a8.587 8.587 0 0 0-.708-.773c-.206-.194-.375-.408-.375-.476s-.188-.346-.417-.618-.417-.594-.417-.715-.112-.263-.25-.315-.25-.192-.251-.31-.186-.588-.412-1.047-.412-.897-.415-.974-.115-.378-.249-.667-.353-1.013-.486-1.609a34.715 34.715 0 0 0-.463-1.833c-.427-1.447-.314-19.122.133-20.583.195-.642.403-1.43.461-1.75.276-1.534 2.123-5.314 3.099-6.341l1.048-1.128c.439-.476.839-.865.889-.865s.403-.25.785-.555.938-.652 1.236-.77.542-.275.542-.348.244-.184.542-.246a4.522 4.522 0 0 0 1.093-.43c.317-.183.868-.317 1.297-.317 1.012 0 1.901-.386 1.901-.825 0-.254-.107-.342-.416-.342s-.417.089-.417.337m7-.024c0 .673 2.74 1.182 2.96.549.061-.178.014-.182-.249-.018-.503.314-1.519.06-1.745-.436-.231-.506-.966-.578-.966-.095m-46.5.681c0 .42-.57.725-1.186.634-.375-.055-.481-.005-.481.223 0 .185-.217.373-.583.505-.321.116-.583.263-.583.328s-.244.272-.542.462a38.11 38.11 0 0 0-.847.558c-.426.296-1.945 1.765-1.945 1.881 0 .053-.3.502-.666.998s-.667.985-.667 1.086-.142.497-.315.882a9.52 9.52 0 0 0-.512 1.657c-.158.768-.261.959-.518.959-.343 0-.459.562-.155.75.233.144.214 2.969-.022 3.205s-.066.731.222.671c.132-.027.318.388.503 1.119.162.638.407 1.4.545 1.691s.252.626.252.742.115.329.256.474.477.607.746 1.026a10.61 10.61 0 0 0 1.077 1.367c.323.333.588.684.588.78s.11.175.244.175.324.15.422.333.291.333.428.333.29.106.34.235.302.323.562.43.51.34.556.516c.053.206.229.319.495.319.227 0 .505.113.619.25s.301.25.415.25.386.14.605.311.585.367.814.436.531.226.671.348.552.321.916.442c.556.183.654.283.607.614s-.007.373.25.257c.493-.225 1.376-.154 1.599.128.114.143.48.308.815.367s.7.217.812.352a.74.74 0 0 0 .494.245c.16 0 .48.149.71.33s.616.405.856.496.436.28.436.42a.26.26 0 0 0 .263.254c.492 0 1.283.963 1.168 1.421-.089.355-.046.413.303.413.422 0 .437.034.69 1.51.074.432.03.654-.161.812-.295.246-.369 1.592-.096 1.761.432.267.068 1.917-.423 1.917-.138 0-.244.154-.244.356 0 .643-.776 1.183-1.52 1.057-.606-.103-.646-.084-.646.304 0 .536-.247.616-1.889.614-1.775-.003-2.111-.099-2.111-.601 0-.218-.075-.397-.167-.397a.167.167 0 0 0-.167.167c0 .315-1.156.183-1.455-.167-.157-.183-.35-.333-.428-.333-.247 0-1.117-.963-1.117-1.238 0-.144-.139-.402-.31-.573-.453-.452-.611-1.482-.284-1.844.375-.414.322-.679-.135-.679-.404 0-.604-.47-.604-1.419 0-.56-.168-.581-4.648-.581-5.178 0-4.819-.19-4.521 2.398.214 1.86.21 1.952-.095 2.184s-.299.241.123.246c.434.006.808.605.808 1.296 0 .132.15.431.333.664s.333.566.333.74.106.357.235.406.326.31.437.578.263.488.337.488.179.132.232.292c.224.679 2.789 3.049 3.551 3.283.207.063.453.259.548.437.099.185.347.322.584.322a1.06 1.06 0 0 1 .698.333c.157.183.438.334.624.336.738.005 1.088.198 1.088.6s.23.532.416.231c.272-.439 2.25.007 2.25.508 0 .236.115.325.417.325s.417-.089.417-.337c0-.419-.536-.638-1.9-.777-.598-.061-1.181-.23-1.414-.411a1.66 1.66 0 0 0-.866-.308c-.257 0-.518-.082-.579-.181s-.422-.329-.801-.51c-1.225-.585-1.796-.939-2.493-1.547-.376-.328-.743-.596-.816-.596s-.131-.069-.131-.153-.282-.458-.625-.832c-.958-1.039-1.36-1.599-1.897-2.642a58.917 58.917 0 0 0-.633-1.206c-.342-.61-.88-3.041-.966-4.366-.117-1.794-.515-1.659 4.704-1.598l4 .047.108 1.092c.133 1.34.723 3.38 1.06 3.659.137.114.248.291.248.395-.002.344 1.575 1.61 2.251 1.806.366.106.814.292.995.412.402.269 3.948.306 4.432.047a.708.708 0 0 0 .336-.542c.007-.203.051-.275.097-.16.357.884 2.155-.811 2.615-2.467.486-1.746.185-4.97-.53-5.688a8.495 8.495 0 0 1-.695-.87c-.229-.325-.502-.593-.605-.596s-.286-.123-.407-.268c-.229-.276-.561-.463-2.433-1.373l-1.755-.875c-.339-.177-.777-.322-.974-.322s-.545-.148-.775-.329a2.7 2.7 0 0 0-.985-.435c-.311-.058-.566-.17-.566-.248s-.308-.233-.684-.346-.72-.299-.764-.413-.294-.255-.555-.313-.564-.211-.673-.343-.29-.239-.402-.239-.383-.154-.604-.341a62.64 62.64 0 0 0-1.435-1.143c-.568-.441-1.205-1.002-1.416-1.247l-1.008-1.149c-.343-.387-.67-.854-.728-1.037a2 2 0 0 0-.316-.583c-1.523-1.794-1.953-8.107-.734-10.782.175-.385.319-.778.319-.873 0-.28 2.181-3.345 2.381-3.345.046 0 .329-.23.629-.51.637-.595 2.057-1.52 3.281-2.137.161-.081.517-.214.792-.295.494-.146.863-1.058.428-1.058-.098 0-.178.147-.178.327m11.667.063c0 .402.554.776 1.148.776.165 0 .436.15.602.334s.435.333.599.333.346.078.405.173.382.35.718.564c1.122.718 3.528 3.287 3.528 3.768 0 .12.104.337.232.482.737.837 1.815 4.771 1.739 6.349-.03.623.006 1.095.081 1.049s.118-.86.096-1.808c-.028-1.216.024-1.8.176-1.983.185-.222.165-.261-.133-.261-.281 0-.403-.185-.627-.958-.153-.527-.372-1.108-.487-1.292a3.57 3.57 0 0 1-.33-.75 2.192 2.192 0 0 0-.371-.703c-.138-.157-.212-.438-.163-.625.066-.251.008-.338-.223-.338-.172 0-.402-.169-.511-.375-.229-.43-2.623-2.792-2.83-2.792-.075 0-.271-.139-.435-.31s-.504-.359-.756-.42c-.356-.085-.461-.211-.471-.565-.008-.25-.051-.361-.098-.247-.203.505-1.389.17-1.389-.392 0-.244-.098-.399-.25-.399s-.25.154-.25.39m38-.066c0 .408.606.842 1.178.842.24 0 .572.15.738.334s.436.333.6.333.346.078.405.173.382.348.718.561c1.166.74 3.361 3.278 3.361 3.888 0 .094.103.256.229.361s.324.528.439.941.27.788.343.833.221.512.329 1.038.265 1.04.349 1.144c.311.385.607 3.741.352 3.996-.325.325-7.664.339-8.106.016-.198-.145-.374-.677-.537-1.625-.511-2.985-2.111-5.326-3.638-5.326-.215 0-.718-.148-1.117-.33-.815-.369-2.29-.442-3.118-.154-.688.24-.77.984-.109.984.336 0 .417-.083.417-.425 0-.415.023-.423 1.042-.375.959.046 1.04.08 1.028.425-.014.396.633.555.847.208.199-.322 1.268-.18 1.761.234.262.221.539.427.615.459.794.329 1.732 2.635 1.165 2.864-.114.046-.044.09.157.097.488.017.531.113.719 1.626.112.898.255 1.382.46 1.554.164.137.272.381.24.541-.054.272.23.292 4.12.292 3.913 0 4.179-.019 4.179-.3 0-.384.316-.7.7-.7.209 0 .3-.127.3-.417 0-.297-.09-.416-.315-.416-.526 0-.968-3.042-.52-3.581.176-.212.153-.253-.148-.253-.571 0-.994-1.68-.475-1.889.115-.047.012-.09-.228-.098-.372-.011-.468-.124-.648-.767-.116-.415-.272-.791-.345-.837s-.376-.506-.672-1.024-.676-1.079-.844-1.247-.305-.379-.305-.471-.069-.167-.153-.167-.46-.295-.836-.656-.839-.706-1.03-.766c-.258-.082-.327-.213-.27-.512.061-.317.031-.363-.141-.221-.4.332-.981.116-1.039-.386-.06-.521-.083-.533-.521-.26s-1.176-.062-1.176-.528c0-.189-.111-.337-.25-.337s-.25.145-.25.324M186.333 52.5v23.833h9.334l.002-8.458c.002-5.027.067-8.56.16-8.708.123-.194.607-.263 2.165-.306l2.006-.056.5.472c.28.265.548.727.609 1.052.06.319.208.678.329.799s.295.501.388.843.279.77.415.951.251.442.254.58.162.545.353.903c.201.375.32.844.281 1.111-.047.319.013.482.194.53.243.063 1.351 2.597 1.346 3.079-.001.115.059.208.134.208s.388.657.697 1.459.696 1.719.863 2.039c.385.736.39 1.289.012 1.387-.176.046-.107.084.175.096.508.021.95.764.95 1.597v.422h10.212l-.1-.708a5.144 5.144 0 0 0-.439-1.369c-.187-.363-.34-.794-.34-.958s-.066-.298-.146-.298-.237-.244-.349-.542c-.313-.84-.818-1.98-1.178-2.658-.18-.339-.327-.798-.327-1.021s-.109-.496-.243-.607a1.366 1.366 0 0 1-.353-.562c-.103-.335-.498-1.24-1.256-2.871-.173-.373-.314-.765-.314-.871s-.15-.439-.333-.739c-.41-.673-.423-1.058-.042-1.29.24-.146.215-.16-.142-.08-.375.085-.461.023-.637-.456-.236-.64-.493-1.222-1.055-2.386-.667-1.382-.742-2.706-.168-2.958.253-.111.52-.297.593-.414.172-.272.731-.274.84-.003.046.114.09.011.097-.23.009-.279.271-.703.722-1.166.827-.85 1.38-1.572 1.622-2.12.096-.216.311-.428.479-.472.221-.057.285-.191.229-.483-.043-.222.031-.573.163-.779s.336-.75.454-1.209l.29-1.125a.43.43 0 0 1 .399-.291c.351 0 .415-.174.159-.43-.094-.094-.19-1.803-.225-3.992-.048-3.024-.117-3.968-.329-4.495-.324-.804-.36-1.691-.075-1.806.115-.047.036-.09-.176-.098-.283-.009-.47-.198-.713-.721-.678-1.46-2.996-4.292-3.513-4.292-.084 0-.375-.15-.646-.333l-.987-.667c-.271-.183-.605-.333-.742-.333-.596 0-1.125-.394-1.051-.783.086-.445-.004-.469-.463-.121-.598.452-2.25.011-2.25-.602 0-.322-.168-.327-9.417-.327h-9.417V52.5m36.834 0v23.833H250v-3.736c0-2.055-.046-3.855-.101-4-.091-.235-.986-.264-8.375-.266-8.711-.003-8.887-.018-8.556-.744.326-.714.278-10.567-.051-10.693-.355-.136-.31-.684.072-.888.207-.111 2.793-.173 7.25-.173h6.928V48h-14v-5.075c0-3.502-.06-5.208-.194-5.501-.307-.675-.361-.67 8.416-.757l8.361-.084.083-3.958.084-3.959h-13.375l-13.375.001V52.5m44-23.47c0 .385-.182 1.032-.671 2.387a17.538 17.538 0 0 0-.498 1.708c-.177.78-.245.875-.631.875-.337 0-.389.044-.234.2.486.485.121 1.967-.484 1.967-.306 0-.314.025-.083.256.31.31.203 1.083-.255 1.847-.171.285-.311.71-.311.943s-.141.824-.314 1.314c-.455 1.291-.978 2.95-1.185 3.765-.151.592-.248.708-.591.708-.481 0-.521.132-.125.422.449.328-.062 1.847-.602 1.786-.343-.038-.352-.019-.107.225.296.296.217 1.221-.156 1.819-.115.184-.296.741-.402 1.238s-.257.984-.334 1.082-.194.478-.259.845a5.846 5.846 0 0 1-.35 1.166c-.126.275-.303.8-.393 1.167a23.12 23.12 0 0 1-.411 1.417 15.25 15.25 0 0 0-.347 1.212c-.055.255-.229.593-.388.752s-.263.429-.23.599c.072.376-.3 1.77-.473 1.77-.068 0-.171.356-.229.792s-.218 1.006-.355 1.269-.252.6-.256.75-.121.572-.259.939c-.304.806-.841 2.529-1.143 3.667-.349 1.311-.392 1.374-.891 1.297-.412-.063-.425-.049-.158.168.464.378.221 2.209-.268 2.021-.14-.054-.182.114-.139.564.036.376-.06.91-.232 1.295-.161.36-.388 1.067-.504 1.571-.383 1.662-.887 1.5 4.684 1.5h4.917v-.572c0-.86.268-1.428.674-1.428.318 0 .326-.023.088-.262-.284-.284-.261-.474.262-2.134.17-.539.313-1.139.317-1.334s.122-.653.263-1.02.331-1.041.423-1.5.323-1.002.515-1.208l.349-.375h6.107c6.993 0 6.631-.079 7 1.53.112.488.304 1.224.428 1.637.991 3.324 1.154 4.196.826 4.435-.305.223-.303.231.044.231.458 0 .704.463.704 1.327v.681l5.333-.012 5.334-.013v-.408c0-.319-.087-.408-.397-.408-.319 0-.426-.121-.549-.625-.169-.688-.115-1.208.125-1.208.084 0 .154-.08.154-.177s-.166-.154-.369-.125c-.273.038-.401-.057-.492-.365a58.82 58.82 0 0 0-.393-1.25 41.53 41.53 0 0 1-.493-1.667 23.737 23.737 0 0 0-.465-1.5c-.642-1.777-.955-2.881-.955-3.375 0-.298-.063-.541-.14-.541-.441 0-.731-2.042-.318-2.238.115-.055.047-.07-.149-.034-.253.046-.411-.054-.542-.34-.252-.552-.236-1.551.024-1.572.115-.009.022-.068-.207-.132a.828.828 0 0 1-.536-.525l-.555-1.909c-.239-.825-.541-1.745-.671-2.044a6.241 6.241 0 0 1-.344-1.218 5.181 5.181 0 0 0-.418-1.283c-.171-.335-.31-.795-.31-1.021s-.158-.739-.351-1.137c-.222-.459-.326-.937-.284-1.303.047-.402.001-.578-.153-.578-.461 0-.756-1.684-.339-1.941.14-.086.073-.159-.206-.225-.337-.08-.463-.279-.688-1.091a29.35 29.35 0 0 0-.454-1.493 40.876 40.876 0 0 1-.891-2.833 10.753 10.753 0 0 0-.415-1.238c-.133-.314-.285-.933-.337-1.375s-.148-.804-.212-.804c-.479 0-.679-1.929-.212-2.051.186-.049.132-.084-.15-.096-.647-.028-1.138-1.629-.602-1.961.14-.086.072-.159-.208-.225-.342-.081-.467-.284-.721-1.174l-.639-2.159a21.793 21.793 0 0 1-.42-1.542l-.089-.458h-8.629v.363m28 23.47v23.833h16v-.416c0-.229.056-.419.125-.421s.402-.068.741-.147c.44-.102.744-.077 1.061.087.654.339.878.285.937-.228.057-.498.828-.749 1.189-.388.289.289.421.211.477-.278.04-.347.182-.5.582-.63a2.83 2.83 0 0 0 .869-.479c.202-.182.48-.272.68-.219.211.055.339.007.339-.126 0-.119.259-.413.575-.654.879-.671 2.929-2.793 3.196-3.309.131-.252.294-.458.363-.458s.215-.207.323-.459.27-.571.36-.708a18.71 18.71 0 0 0 1.1-2.5c.068-.229.179-.492.246-.583s.215-.655.328-1.25.278-1.17.364-1.275c.482-.586.618-15.771.161-17.892a29.592 29.592 0 0 0-.806-3 5.88 5.88 0 0 1-.272-1.333c-.014-.392-.127-.639-.342-.75-.176-.092-.393-.392-.483-.667a3.536 3.536 0 0 0-.472-.897c-.169-.219-.308-.494-.308-.612s-.056-.238-.125-.269-.46-.495-.868-1.033-1.037-1.25-1.395-1.583a474.58 474.58 0 0 1-1.403-1.314c-.413-.39-.887-.709-1.053-.709s-.353-.081-.415-.18-.449-.325-.862-.502c-.652-.28-.74-.377-.671-.737.09-.471-.058-.516-.589-.18-.522.33-1.119.075-1.119-.479 0-.482-.249-.532-.918-.185-.251.13-.541.212-.644.181a12.309 12.309 0 0 0-.646-.157c-.35-.077-.459-.198-.459-.514v-.413h-16.166V52.5m36.833 0v23.833h27.5V72.52c0-2.953-.05-3.854-.22-3.995-.151-.125-2.814-.197-8.513-.229-7.989-.044-8.303-.058-8.531-.37-.326-.447-.353-11.664-.028-11.874.115-.075 3.396-.173 7.292-.219l7.083-.083.045-3.879.045-3.878-6.878.06-7.295.129-.417.068-.044-5.423c-.036-4.495-.003-5.48.195-5.75.231-.316.516-.329 8.449-.373 5.638-.032 8.28-.104 8.431-.229.17-.141.219-1.042.219-3.995v-3.813H332V52.5m33.167 0v23.833h9.333v-8.416c0-10.079-.28-9.084 2.559-9.084 2.121 0 2.596.221 2.964 1.375a11.46 11.46 0 0 0 .4 1.042c.845 1.867 1.077 2.413 1.077 2.538 0 .078.153.439.339.802.195.38.3.819.247 1.035-.063.254-.017.375.141.375.128 0 .321.244.429.542a11.65 11.65 0 0 0 .521 1.158c.177.339.323.798.323 1.021s.112.498.249.612.338.516.446.895.288.801.402.939.289.565.392.951.26.746.349.801c.236.146.199 1.205-.046 1.304-.115.046-.01.09.233.097.484.015.808.632.808 1.538v.475h10.377l-.097-.601a5.07 5.07 0 0 0-.439-1.255c-.187-.36-.341-.831-.341-1.048s-.104-.434-.232-.483-.359-.468-.513-.932-.341-.881-.415-.927-.183-.339-.242-.652-.218-.66-.354-.773-.293-.494-.349-.847-.206-.728-.332-.832-.229-.274-.229-.376-.18-.562-.399-1.021a47.921 47.921 0 0 1-.843-1.919c-.244-.596-.552-1.283-.685-1.526a2.386 2.386 0 0 1-.24-.958c0-.335-.083-.516-.237-.516-.13 0-.32-.25-.42-.556a10.618 10.618 0 0 0-.513-1.202c-.182-.355-.33-.756-.33-.889s-.127-.384-.282-.556c-.454-.501-.414-2.312.056-2.548.196-.098.477-.278.623-.399s.379-.177.518-.124c.166.064.252-.004.252-.2 0-.163.332-.604.737-.979s.858-.915 1.005-1.198.33-.516.408-.516.236-.225.35-.5.31-.5.437-.5c.149 0 .229-.196.229-.563 0-.31.105-.649.232-.755s.284-.54.348-.964c.172-1.148.367-1.551.75-1.551s.432-.172.144-.46c-.133-.133-.203-1.35-.224-3.909-.023-2.939-.084-3.837-.287-4.298-.445-1.007-.51-1.596-.209-1.896.249-.25.237-.271-.163-.271-.321 0-.474-.117-.595-.458a3.936 3.936 0 0 0-.33-.708 8.093 8.093 0 0 1-.375-.658c-.285-.561-.736-1.11-1.666-2.026-.435-.43-.791-.864-.791-.965s-.139-.185-.308-.185-.464-.131-.654-.291c-.586-.493-1.423-.934-2.122-1.117-.55-.145-.675-.255-.719-.633-.048-.414-.364-.677-.364-.303 0 .293-.687.373-1.51.175-.703-.168-.823-.256-.823-.597v-.4h-19V52.5M53.218 31.773c-.057.15-.017.393.089.541a3.96 3.96 0 0 1 .343.611c.413.945 1.23 1.925 1.563 1.876.535-.079.559-.468.029-.468-.425 0-.447-.035-.356-.594.092-.567.076-.591-.353-.541-.442.051-.449.037-.413-.823.037-.91-.616-1.347-.902-.602m72.558 4.365c-.152.168-.276.43-.276.583 0 .42.469.335.53-.096.05-.352.143-.378 1.512-.423l1.458-.048v.423c0 .468.103.502.755.254.505-.192 1.951.838 2.177 1.552.064.201.23.449.368.55.31.226.506 2.067.221 2.067-.103 0-.188.15-.188.333a.29.29 0 0 0 .334.334c.284 0 .333.111.333.75 0 .412.075.75.167.75.519 0-.15-3.618-.883-4.78-.653-1.035-1.774-1.926-2.321-1.846-.302.044-.463-.007-.463-.147 0-.624-3.193-.843-3.724-.256m-2.096 1.132c-.466.424-.847.911-.847 1.083s-.066.314-.146.314c-.764 0-.845 4.081-.103 5.195.679 1.021 1.733 2.109 2.416 2.496.321.182.883.514 1.25.737s.808.455.981.514.646.285 1.051.5.854.391.999.391.514.155.821.345c.313.193.76.321 1.019.291.326-.037.512.044.631.275.093.18.449.394.792.475s.623.207.623.279.281.256.625.407c.841.37 1.532.783 1.902 1.136.168.161.393.292.5.292s.313.111.459.247a28.74 28.74 0 0 0 .764.675c1.095.939 1.889 1.772 2.334 2.45l.775 1.163c.169.248.307.533.307.633s.119.411.263.69c1.043 2.017 1.448 6.993.737 9.059-.183.533-.333 1.089-.333 1.237s-.15.547-.333.89-.334.693-.334.781c0 .323-1.121 1.882-1.955 2.718-.962.965-2.404 2.004-3.081 2.219-.164.051-.297.164-.297.249s-.217.156-.482.156c-.617 0-1.277.518-1.134.89.159.415.449.332.449-.127 0-.481.768-.733 1.324-.435.302.162.343.136.343-.221 0-.412.272-.607.847-.607.176 0 .32-.111.32-.246s.206-.354.458-.486c.489-.257 1.74-1.451 2.292-2.186.183-.245.502-.629.708-.855s.375-.512.375-.638c0-.496.22-.756.643-.759.328-.001.38-.041.202-.153-.421-.266-.035-1.746.474-1.817.258-.037.33-.102.2-.182-.308-.19-.302-7.335.006-7.531.214-.136.013-.226-.385-.172-.357.048-.592-1.623-.273-1.942.155-.156.1-.2-.247-.2-.522 0-.799-.667-.452-1.085.174-.209.137-.248-.234-.248-.321 0-.496-.125-.642-.459-.111-.252-.297-.518-.413-.591s-.212-.28-.212-.459-.113-.325-.25-.325-.25-.148-.25-.333c0-.215-.111-.333-.314-.333a.45.45 0 0 1-.401-.334.444.444 0 0 0-.436-.333c-.199 0-.349-.107-.349-.25 0-.138-.088-.25-.196-.25s-.332-.125-.501-.277a3.629 3.629 0 0 0-.679-.462c-.206-.102-.397-.342-.424-.532-.039-.267-.142-.329-.451-.27-.249.048-.57-.056-.848-.274-.245-.194-.539-.352-.653-.352s-.291-.1-.393-.223-.486-.313-.853-.423c-.545-.163-.669-.276-.669-.61 0-.431-.304-.54-.621-.223-.345.345-1.044.027-1.059-.482-.007-.251-.051-.362-.097-.247-.132.326-1.129.246-1.556-.125-.212-.183-.474-.333-.583-.333-.32 0-2.251-1.012-2.251-1.18 0-.085-.099-.154-.219-.154-.365 0-1.614-1.05-1.614-1.357 0-.163-.151-.309-.35-.339-1.317-.201-1.932-5.47-.638-5.47.278 0 .304-.054.161-.323-.25-.466-.252-.463.671-1.339.625-.592.936-.778 1.193-.71.237.062.31.029.229-.102-.231-.374-.749-.185-1.586.577m37.202-.093c-.865.655-2.049 2.037-2.049 2.391 0 .103-.144.457-.321.787s-.373.891-.435 1.247a13.285 13.285 0 0 1-.387 1.481c-.417 1.272-.409 16.978.009 18.584a37.04 37.04 0 0 1 .397 1.666c.063.321.255.845.426 1.165s.311.649.311.732c0 .384 2.027 2.587 2.391 2.599.077.002.331.154.564.338.452.355 1.289.447 1.466.16.069-.112-.041-.136-.312-.068-.307.077-.499.011-.718-.244-.164-.191-.453-.348-.642-.348-.344 0-1.915-1.445-1.915-1.761 0-.091-.146-.29-.324-.443s-.374-.544-.436-.87-.169-.593-.239-.593c-.185 0-.501-1.363-.501-2.157 0-.372.075-.676.166-.676A.167.167 0 0 0 158.5 61c0-.092-.141-.167-.312-.167-.491 0-.521-.498-.519-8.479.001-7.798.048-8.721.433-8.574.314.121.482-.394.228-.7-.248-.299-.143-1.293.221-2.098.141-.311.308-.745.371-.965.188-.649.971-1.671 1.286-1.677.171-.004.292-.135.292-.316 0-.389 1.393-1.292 1.889-1.225.293.04.314.017.111-.122-.411-.282-.706-.191-1.618.5m40.796-.338c.177.095.322.32.322.5 0 .365.754.482.87.135.109-.328 1.182-.196 1.489.183.153.189.353.343.445.343.212 0 1.216 1.39 1.584 2.192.357.779.374 2.115.029 2.248-.383.147-.359 2.65.027 2.866.204.114.271.358.249.916-.046 1.225-.314 1.716-.89 1.635-.063-.009-.074.23-.025.531.164 1.012-1.811 2.6-2.265 1.82-.141-.242-.17-.199-.175.247-.005.618-.502.852-1.299.613-.251-.076-1.787-.14-3.414-.144l-2.959-.007.001-6.866v-6.865l.37-.26c.441-.309 5.092-.38 5.641-.087m106.561-.01c.265.101.428.291.428.5 0 .388.945.493 1.294.144.513-.514 1.995.014 1.76.627-.102.265.205.322.362.067s.606-.198.948.125c1.722 1.626 2.312 2.664 1.886 3.314-.24.367-.236.394.059.394.489 0 .688.367.824 1.522.149 1.254.094 1.645-.229 1.645-.161 0-.238.189-.238.583 0 .511.052.583.417.583h.417v12.5h-.417c-.498 0-.601.714-.14.972.647.362.15 3.195-.559 3.195-.416 0-.423.014-.152.314.316.349.232 1.036-.165 1.366-.129.107-.234.264-.234.35 0 .257-1.04 1.47-1.26 1.47-.112 0-.248.112-.3.25-.115.3-.628.328-.907.05-.155-.156-.2-.101-.2.243 0 .626-1.098.983-1.736.564-.621-.407-1.21-.362-1.194.091.018.481-.427.598-2.352.619-2.286.025-2.051 1.834-2.051-15.817 0-17.575-.211-15.833 1.915-15.833.768 0 1.589.073 1.824.162m72.219-.057c.256.068.375.226.375.497 0 .467.386.524 1.085.161.497-.258.818-.201 1.332.237.183.156.465.33.625.386s.292.21.292.341.106.278.236.328c.719.276 1.548 3.168 1.031 3.597-.393.326-.388 2.932.005 3.083.225.087.254.262.167 1.004-.146 1.241-.243 1.427-.74 1.427-.337 0-.388.045-.233.2.368.368.207.804-.607 1.639-.786.807-1.408 1.051-1.582.62-.047-.115-.09-.043-.098.16-.021.599-1.462 1.034-1.77.536-.074-.119-1.095-.165-3.052-.138l-2.941.041-.048-6.404c-.052-7.04-.026-7.434.516-7.652.413-.166 4.83-.218 5.407-.063M272.13 43.833c.118.504.362 1.367.542 1.917.395 1.205.425 2.056.078 2.19-.404.155-.286.354.159.269.488-.093.661.359.669 1.749.004.57.076.875.207.875.111 0 .274.282.362.625.364 1.43.376 1.662.1 1.938-.25.25-.244.271.079.271.412 0 .654.533.795 1.75.053.458.16.875.238.926s.221.53.32 1.065c.228 1.233-.04 1.664-.746 1.201-.58-.38-6.335-.402-6.831-.027-.879.666-1.147-.595-.484-2.278.233-.591.323-.94 1.011-3.92.173-.751.393-1.464.487-1.583s.22-.643.278-1.162c.144-1.284.238-1.472.739-1.472.403 0 .411-.015.123-.225-.567-.415-.083-2.442.583-2.442.396 0 .433-.257.057-.402-.29-.111-.243-.936.105-1.85.302-.796.874-.5 1.129.585m-108.029 7.264c-.256.667-.109 6.896.16 6.792.144-.055.425-.017.625.085.211.107 1.535.204 3.148.23 3.542.058 3.206-.398 3.262 4.429.048 4.209-.098 5.034-.892 5.034-.148 0-.459.15-.692.333-.452.355-1.125.442-1.295.167-.242-.392-1.25-.19-1.25.25 0 .616-2.276.656-2.364.041-.04-.285-.18-.387-.583-.426-.506-.049-.524-.031-.405.417.258.962 4.185.995 4.185.035 0-.175.075-.317.167-.317s.166.075.166.166c0 .31 1.264.183 1.667-.166.211-.184.48-.334.597-.334.785 0 .903-.656.903-5.033 0-5.296.327-4.8-3.159-4.8-3.741 0-3.341.442-3.341-3.684v-3.483h-.399c-.219 0-.444.119-.5.264m16.399 9.216c0 10.424.01 10.264-.688 10.953l-.848.859c-.197.206-.448.375-.56.375s-.245.112-.298.25-.192.25-.309.25-.432.188-.698.417-.611.416-.766.416-.417.15-.583.334-.467.333-.67.333-.559.15-.792.333-.613.334-.845.334c-.779 0-1.276.291-1.276.746 0 .262.093.42.25.42.152 0 .25-.155.25-.399 0-.585 1.321-.879 1.8-.401.155.156.2.101.2-.246 0-.522.666-.799 1.085-.452.209.173.248.137.248-.228 0-.458.567-.745 1.083-.547.168.064.25-.007.25-.215 0-.284.758-.878 1.542-1.211.16-.068.292-.201.292-.295s.187-.172.416-.172c.277 0 .417-.093.417-.276 0-.44.806-1.391 1.087-1.283.216.083.246-1.14.246-9.84v-9.935h-.833v9.48M131.902 75.99c-.924.221-1.368 1.01-.569 1.01.22 0 .334-.111.334-.325 0-.383.974-.721 1.656-.573.334.071.372.053.177-.086-.281-.199-.834-.208-1.598-.026m27.431-.011c0 .121.149.157.395.095.649-.163 1.772.217 1.772.599 0 .238.114.327.417.327.525 0 .576-.57.075-.838-.516-.276-2.659-.423-2.659-.183m10.206.031c-.899.177-1.039.267-1.039.667 0 .524.961.447 1.167-.094.162-.426.48-.515 1.583-.446.381.024.441-.007.25-.133-.292-.193-.962-.191-1.961.006" fill="#249cd4"/><path d="M21.537 4.51c-.142.455-.204 2.252-.204 5.967l-.208 5.878c-.164.443-.199 6.492-.165 28.59l.043 28.028.84.18c.462.099 1.284.18 1.826.18.592 0 1.323.133 1.831.334.465.183 1.02.333 1.234.333s.578.15.811.333.579.334.768.334c.401 0 2.118.862 3.389 1.701.248.164.555.299.682.299s.367.15.533.333.397.333.514.333c.182 0 2.71 1.961 3.373 2.616.121.12.285.218.364.218s1.112.956 2.296 2.125l2.842 2.75c.38.344.869.906 1.089 1.25s.801 1.056 1.293 1.584a23.861 23.861 0 0 1 1.562 1.882l1.272 1.719c.333.438.728 1.016.877 1.285.292.523 1.3 1.997 1.641 2.399.418.493.933 1.322 2.132 3.432.675 1.186 1.274 2.194 1.332 2.24s.246.327.419.625.419.542.545.542.269.15.317.333.222.334.387.334.338.093.384.208.09-15.175.098-33.977l.013-34.185-.395.075c-.388.075-1.164-.817-1.622-1.863a4.237 4.237 0 0 0-.357-.633c-.165-.232-.165-.358.001-.625.187-.298.167-.334-.181-.334-.374 0-.492-.143-1.53-1.858-.092-.151-.41-.623-.708-1.05s-.542-.886-.542-1.022a.384.384 0 0 0-.228-.334c-.237-.091-1.272-1.591-1.272-1.844 0-.08-.15-.238-.333-.353s-.333-.32-.333-.457-.067-.248-.148-.248-.267-.253-.414-.561-.379-.655-.519-.77-.253-.313-.253-.44-.065-.229-.144-.229-.414-.357-.743-.792c-1.045-1.384-1.184-1.554-1.779-2.179-.941-.99-1.294-1.588-1.151-1.954.239-.612.174-1.094-.141-1.041-.195.033-.309-.076-.345-.326-.034-.241-.168-.375-.375-.375s-.322-.115-.322-.333a.29.29 0 0 0-.333-.334.29.29 0 0 1-.333-.333c0-.244-.111-.333-.417-.333s-.417-.089-.417-.334A.29.29 0 0 0 40 13.5a.29.29 0 0 1-.333-.333.29.29 0 0 0-.334-.334A.29.29 0 0 1 39 12.5a.29.29 0 0 0-.333-.333c-.248 0-.334-.111-.334-.432 0-.406-.036-.425-.625-.325-.738.124-1.323-.13-2.28-.988-.36-.324-.754-.589-.875-.589s-.22-.073-.22-.162-.243-.287-.541-.439-.602-.379-.675-.505-.28-.227-.459-.227-.475-.15-.658-.333-.431-.334-.551-.334-.472-.187-.782-.416S30.002 7 29.879 7s-.263-.105-.312-.233-.421-.282-.826-.343-.84-.213-.965-.339-.52-.281-.877-.347a5.145 5.145 0 0 1-1.23-.429c-.383-.204-.928-.309-1.6-.309C22.796 5 22 4.741 22 4.327c0-.573-.259-.471-.463.183m69.796-.363c0 .501-.563.722-2.23.876-.838.078-1.603.238-1.753.368s-.557.275-.912.329-.77.211-.921.348-.588.299-.969.36-.734.215-.782.342-.189.23-.312.23-.477.188-.787.417-.663.416-.783.416-.367.15-.551.334-.466.333-.629.333-.418.131-.567.292-.549.479-.888.708-.745.535-.904.679a2.207 2.207 0 0 1-.566.37c-.153.059-.279.222-.279.362s-.11.256-.244.256-.393.16-.576.357c-.301.323-.369.334-.715.117-.54-.339-.873-.285-.935.151-.034.241-.168.375-.375.375s-.322.115-.322.333c0 .244-.111.333-.416.333s-.417.089-.417.334a.29.29 0 0 1-.333.333.29.29 0 0 0-.334.333.29.29 0 0 1-.333.334.29.29 0 0 0-.333.333.29.29 0 0 1-.334.333.29.29 0 0 0-.333.334.29.29 0 0 1-.333.333.29.29 0 0 0-.334.333c0 .229-.111.334-.355.334-.321 0-.347.07-.271.74.06.534.019.765-.145.828-.126.048-.229.215-.229.371s-.109.401-.242.547l-.875.945c-.348.375-.708.795-.799.933-.901 1.363-1.11 1.636-1.252 1.636-.091 0-.165.103-.165.229s-.117.327-.26.445-.364.466-.491.771-.311.555-.407.555-.175.112-.175.248-.15.343-.334.457-.333.31-.333.433c0 .244-.525.992-1.125 1.602-.206.21-.375.473-.375.586s-.15.395-.333.628-.334.524-.334.646-.15.302-.333.4-.333.325-.333.506-.15.477-.334.66-.333.437-.333.563-.114.324-.253.44-.373.462-.519.77-.332.561-.414.561-.147.112-.147.249c0 .432-1.175 1.917-1.516 1.917-.311 0-.318.668-.318 33.917l.314 33.917a.45.45 0 0 0 .401-.334c.048-.183.188-.333.311-.334.215-.001.38-.226 1.307-1.782a603.064 603.064 0 0 1 2.118-3.531 27.14 27.14 0 0 0 .568-.978c.111-.206.263-.375.338-.375s.289-.281.475-.625c.799-1.473 3.251-4.796 5.458-7.393a26.79 26.79 0 0 0 1.127-1.41c.183-.262.596-.728.917-1.037l2.083-2.025c1.514-1.479 2.65-2.481 3.506-3.093a7.26 7.26 0 0 0 .713-.579c.587-.581 2.257-1.838 2.443-1.838.112 0 .339-.15.505-.333s.405-.333.532-.333.434-.135.683-.299c1.262-.833 2.987-1.701 3.382-1.701.185 0 .614-.141.953-.314 1.188-.603 2.296-.895 3.866-1.019.871-.068 1.789-.18 2.041-.247l.456-.122.044-28.024-.166-28.586c-.149-.403-.214-2.104-.228-6-.011-2.991-.067-5.657-.125-5.925-.123-.571-.522-.787-.522-.283m33.5 24.166c0 .732-2.807 1.307-2.853.584-.011-.172-.067-.09-.126.183-.078.364-.238.535-.605.644a5.763 5.763 0 0 0-.832.322c-1.374.713-2.596 1.509-3.24 2.111-.3.28-.583.51-.629.51-.2 0-2.381 3.065-2.381 3.345 0 .095-.144.488-.319.873-1.219 2.675-.789 8.988.734 10.782a2 2 0 0 1 .316.583c.058.183.385.65.728 1.037l1.008 1.149c.211.245.848.806 1.416 1.247a62.64 62.64 0 0 1 1.435 1.143c.221.187.493.341.604.341s.293.107.402.239.412.286.673.343.511.198.555.313.387.3.764.413.684.269.684.346.255.19.566.248a2.7 2.7 0 0 1 .985.435c.23.181.579.329.775.329s.635.145.974.322 1.129.57 1.755.875c1.872.91 2.204 1.097 2.433 1.373.121.145.304.266.407.268s.376.271.605.596.542.717.695.87c.715.718 1.016 3.942.53 5.688-.46 1.656-2.258 3.351-2.615 2.467-.046-.115-.09-.043-.097.16a.708.708 0 0 1-.336.542c-.484.259-4.03.222-4.432-.047-.181-.12-.629-.306-.995-.412-.676-.196-2.253-1.462-2.251-1.806 0-.104-.111-.281-.248-.395-.337-.279-.927-2.319-1.06-3.659l-.108-1.092-4-.047c-5.219-.061-4.821-.196-4.704 1.598.086 1.325.624 3.756.966 4.366.078.137.362.68.633 1.206.537 1.043.939 1.603 1.897 2.642.343.374.625.748.625.832s.059.153.131.153.44.268.816.596c.697.608 1.268.962 2.493 1.547.379.181.74.411.801.51s.322.181.579.181a1.66 1.66 0 0 1 .866.308c.233.181.816.35 1.414.411 1.364.139 1.9.358 1.9.777 0 .326.099.337 2.916.337 2.788 0 2.917-.014 2.917-.327 0-.638 2.027-1.122 2.542-.607.351.35.445.338.345-.047-.104-.395.513-.852 1.15-.852.255 0 .463-.07.463-.156s.133-.198.297-.249c.677-.215 2.119-1.254 3.081-2.219.834-.836 1.955-2.395 1.955-2.718 0-.088.15-.439.334-.781s.333-.743.333-.89.15-.704.333-1.237c.711-2.066.306-7.042-.737-9.059-.144-.279-.263-.59-.263-.69s-.138-.385-.307-.633l-.775-1.163c-.445-.678-1.239-1.511-2.334-2.45a28.738 28.738 0 0 1-.764-.675c-.146-.136-.352-.247-.459-.247s-.332-.131-.5-.292c-.37-.353-1.061-.766-1.902-1.136-.344-.151-.625-.334-.625-.407s-.281-.198-.623-.279-.699-.295-.792-.475c-.119-.231-.305-.312-.631-.275-.259.03-.706-.098-1.019-.291-.307-.19-.676-.345-.821-.345s-.594-.176-.999-.391-.877-.44-1.051-.5-.614-.291-.981-.514a58.655 58.655 0 0 0-1.25-.737c-.683-.387-1.737-1.475-2.416-2.496-.742-1.114-.661-5.195.103-5.195.08 0 .146-.141.146-.314 0-.841 2.128-2.178 2.487-1.561.154.265.17.259.175-.058.01-.677.504-.901 1.987-.901 1.396 0 2.018.173 2.018.561 0 .14.161.191.463.147 1.44-.211 3.37 3.122 3.37 5.819v.807h4.316c4.908 0 4.52.133 4.515-1.556-.005-1.523-1.124-5.414-1.761-6.124-.13-.145-.236-.362-.236-.482 0-.481-2.406-3.05-3.528-3.768-.336-.214-.659-.468-.718-.564s-.241-.173-.405-.173-.433-.15-.599-.333-.437-.334-.602-.334c-.603 0-1.148-.374-1.148-.788 0-.377-.018-.385-.282-.121-.561.562-2.552.085-2.552-.611 0-.294-.171-.313-2.75-.313s-2.75.019-2.75.313m37 .029c0 .439-.889.825-1.901.825-.429 0-.98.134-1.297.317a4.522 4.522 0 0 1-1.093.43c-.298.062-.542.172-.542.246s-.244.23-.542.348-.854.464-1.236.77-.735.555-.785.555-.45.389-.889.865l-1.048 1.128c-.976 1.027-2.823 4.807-3.099 6.341-.058.32-.266 1.108-.461 1.75-.447 1.461-.56 19.136-.133 20.583.122.413.33 1.237.463 1.833s.351 1.32.486 1.609.246.589.249.667.19.516.415.974.411.93.412 1.047.114.257.251.31.25.194.25.315.188.442.417.715.417.55.417.618.169.282.375.476a8.59 8.59 0 0 1 .708.773c.444.559 2.17 1.948 2.586 2.08.182.058.331.17.331.248s.256.227.57.331.66.296.77.429.384.242.608.242c.645 0 1.05.301 1.071.797.014.322.043.362.1.138.169-.66 3.047-.122 3.047.571 0 .313.13.327 3.084.327 2.984 0 3.083-.011 3.083-.337 0-.621 2.523-1.116 3.041-.598.388.388.626.33.626-.152 0-.455.497-.746 1.276-.746.232 0 .612-.15.845-.334s.589-.333.792-.333.504-.15.67-.333.428-.334.583-.334.5-.187.766-.416.58-.417.698-.417.257-.113.309-.25.187-.25.298-.25.363-.169.56-.375a46.05 46.05 0 0 1 .848-.859c.698-.689.688-.529.688-10.954v-9.479H165v3.483c0 4.126-.4 3.684 3.341 3.684 3.486 0 3.159-.496 3.159 4.8 0 4.377-.118 5.033-.903 5.033-.117 0-.386.15-.597.334-.403.349-1.667.476-1.667.166a.167.167 0 0 0-.166-.166c-.092 0-.167.142-.167.317 0 .853-3.986.948-4.139.098-.095-.528-.358-.707-.546-.374-.222.394-1.001.373-1.527-.041-.233-.184-.487-.336-.564-.338-.364-.012-2.391-2.215-2.391-2.599 0-.083-.14-.413-.311-.732a5.056 5.056 0 0 1-.426-1.165 37.041 37.041 0 0 0-.397-1.666c-.418-1.606-.426-17.312-.009-18.584.15-.458.324-1.124.387-1.481s.258-.917.435-1.247.321-.684.321-.787c0-.791 2.726-3.173 3.43-2.996.222.055.404.175.404.265s.112.163.25.163c.153 0 .25-.156.25-.4 0-.79 2.262-1.056 3.643-.43.399.182.902.33 1.117.33 1.527 0 3.127 2.341 3.638 5.326.163.948.339 1.48.537 1.625.442.323 7.781.309 8.106-.016.255-.255-.041-3.611-.352-3.996-.084-.104-.241-.619-.349-1.144s-.256-.993-.329-1.038-.227-.42-.343-.833-.313-.837-.439-.941-.229-.267-.229-.361c0-.61-2.195-3.148-3.361-3.888-.336-.213-.66-.465-.718-.561s-.242-.173-.405-.173-.434-.15-.6-.333a1.141 1.141 0 0 0-.738-.334c-.589 0-1.178-.438-1.178-.874 0-.34-.01-.342-.226-.048-.465.636-2.941.132-2.941-.598 0-.295-.178-.313-3.083-.313-2.998 0-3.084.009-3.084.342" fill="#264e9d"/></svg>